<?xml version="1.0" standalone="no"?>
<!DOCTYPE svg PUBLIC "-//W3C//DTD SVG 1.1//EN" "http://www.w3.org/Graphics/SVG/1.1/DTD/svg11.dtd" >
<svg xmlns="http://www.w3.org/2000/svg">
<metadata></metadata>
<defs>
<font id="barmenoregular" horiz-adv-x="1067" >
<font-face units-per-em="2048" ascent="1567" descent="-481" />
<missing-glyph horiz-adv-x="512" />
<glyph unicode="&#xfb01;" horiz-adv-x="980" d="M20 997q0 43 4.5 53.5t32.5 10.5h117q4 70 16.5 161t47.5 169q37 78 103.5 135t152.5 57q39 0 65.5 -20.5t26.5 -59.5q0 -33 -19.5 -50t-42.5 -21q-8 -2 -31.5 -1t-31.5 1q-70 0 -101.5 -57.5t-31.5 -157.5q0 -70 8 -102t18 -54h170q31 2 36 -9.5t5 -56.5q0 -20 -11 -23 t-30 -3h-166v-926q0 -29 -10 -36t-31 -7h-106q-25 0 -31 9t-6 36v924h-115q-23 0 -31 3t-8 25zM657 1350q0 47 32 77.5t79 30.5q45 0 76 -27.5t33 -74.5q2 -45 -28 -79t-83 -34t-81 32t-28 75zM676 39v983q0 20 4 29.5t31 9.5h106q25 0 33 -7t8 -32v-983q0 -27 -9 -33 t-32 -6h-110q-23 0 -27 8t-4 31z" />
<glyph unicode="&#xfb02;" horiz-adv-x="980" d="M20 997q0 43 4.5 53.5t32.5 10.5h117q4 70 16.5 161t47.5 169q37 78 103.5 135t152.5 57q41 0 66.5 -20.5t25.5 -59.5q0 -33 -18.5 -50t-43.5 -21q-6 -2 -30.5 -1t-32.5 1q-70 0 -101.5 -57.5t-31.5 -157.5q0 -70 8 -102t18 -54h170q31 2 36 -9.5t5 -56.5q0 -20 -10 -23 t-31 -3h-166v-926q0 -29 -10 -36t-31 -7h-106q-25 0 -31 9t-6 36v924h-115q-23 0 -31 3t-8 25zM678 37v1499q0 23 10 28t31 5h102q23 0 31 -6.5t8 -28.5v-1497q0 -25 -9 -31t-30 -6h-104q-25 0 -32 6t-7 31z" />
<glyph horiz-adv-x="2048" />
<glyph horiz-adv-x="2048" />
<glyph unicode="&#xd;" horiz-adv-x="512" />
<glyph unicode=" "  horiz-adv-x="512" />
<glyph unicode="&#x09;" horiz-adv-x="512" />
<glyph unicode="&#xa0;" horiz-adv-x="512" />
<glyph unicode="!" horiz-adv-x="598" d="M211 115q0 47 35 88t94 41q57 0 96 -40t35 -95q-4 -53 -43 -87t-88 -34q-31 0 -55.5 12t-41 30.5t-24.5 41t-8 43.5zM233 1403q-4 33 8.5 38t34.5 5h127q25 0 36.5 -5t9.5 -38l-56 -909q-2 -25 -10 -30t-29 -5q-45 0 -55 4t-12 33z" />
<glyph unicode="&#x22;" horiz-adv-x="811" d="M123 1440q0 53 32.5 73.5t61.5 20.5q33 0 50.5 -12.5t25.5 -28.5t9 -32.5t1 -26.5l-72 -523h-38l-68 496q0 10 -1 17.5t-1 15.5zM508 1424.5v15.5q0 53 31.5 73.5t60.5 20.5q33 0 50.5 -12.5t25.5 -28.5t9 -32.5t1 -26.5l-72 -523h-39l-65 496q-2 10 -2 17.5z" />
<glyph unicode="#" horiz-adv-x="1193" d="M2 528v113h356l29 199h-342v116h358l66 490h123l-68 -490h205l66 490h123l-66 -490h342v-116h-358l-27 -199h344v-113h-358l-70 -528h-125l74 528h-207l-78 -528h-117l72 528h-342zM481 641h207l27 199h-207z" />
<glyph unicode="$" horiz-adv-x="1024" d="M57 272q0 41 26 62.5t54 21.5q41 0 61.5 -27.5t39.5 -68.5q12 -27 28.5 -53.5t42 -50t65.5 -41t99 -25.5v580q-84 39 -155.5 78.5t-126 89t-85 114t-30.5 154.5q0 96 32.5 159.5t69.5 100.5t80 58.5t84 32.5t75 14.5t56 5.5v139q0 20 7 23t42 3q20 0 23.5 -5t3.5 -23 v-137q86 -6 151.5 -33t110.5 -61.5t67.5 -74.5t22.5 -71q0 -37 -23.5 -58.5t-52.5 -21.5q-35 0 -55 22.5t-53 80.5q-20 33 -56 65.5t-112 42.5v-543q14 -6 43 -21.5t60.5 -30.5t57 -28.5t33.5 -17.5q29 -16 67 -45t73 -72t59.5 -101t24.5 -136q0 -92 -33 -162t-80 -117 q-39 -37 -80 -60.5t-81 -35.5t-76.5 -18.5t-67.5 -10.5v-141q0 -16 -2 -19.5t-19 -3.5q-37 0 -46 3.5t-9 21.5v139q-29 2 -66.5 7.5t-81.5 18.5t-90.5 38.5t-89.5 68.5q-35 37 -61.5 85.5t-26.5 84.5zM238 1135q0 -59 20.5 -101.5t54 -73t75.5 -55t85 -45.5v510 q-27 -4 -62.5 -10t-74.5 -33t-68.5 -74t-29.5 -118zM549 90q84 6 133 35t75.5 65.5t34 75.5t7.5 66q0 72 -28 123t-67.5 85.5t-82.5 57.5t-72 35v-543z" />
<glyph unicode="%" horiz-adv-x="1622" d="M68 991q0 106 18 194.5t54 151t87.5 96t116.5 33.5q61 0 111.5 -33.5t85 -94t54 -145.5t19.5 -189q0 -96 -16 -183.5t-50 -153t-86 -104.5t-122 -39q-57 0 -106.5 30t-86 88t-58 146.5t-21.5 202.5zM195 1008q0 -55 5 -125t21.5 -131.5t44 -103.5t74.5 -42q51 0 81 47 t44 110.5t18 130t4 107.5q0 61 -6 130t-21.5 126.5t-45 95.5t-74.5 38q-47 0 -75.5 -41t-44 -101.5t-20.5 -126t-5 -114.5zM393 18q0 6 2 12.5t11 22.5l720 1358q12 23 20.5 30t29.5 7q29 0 41 -2t12 -16q0 -6 -3 -12.5t-14 -24.5l-716 -1358q-12 -25 -20.5 -30t-29.5 -5 q-35 0 -44 2t-9 16zM1006 449q0 106 18 194t54 150.5t87.5 96.5t116.5 34q61 0 111.5 -34t85 -94.5t54 -145.5t19.5 -189q0 -96 -16 -182t-50 -153t-86 -105.5t-122 -38.5q-57 0 -107.5 29.5t-87 89t-57 146.5t-20.5 202zM1133 467q0 -57 5 -127t21.5 -131.5t44 -103.5 t74.5 -42q51 0 81 47.5t44 111t18 130t4 107.5q0 61 -6 129.5t-21.5 126t-45 95.5t-74.5 38q-47 0 -75.5 -41t-44 -100.5t-20.5 -125t-5 -114.5z" />
<glyph unicode="&#x26;" horiz-adv-x="1280" d="M45 322q0 66 25.5 133t72.5 125q25 31 51.5 54t61.5 48t80 51.5t104 61.5q-49 68 -80.5 118t-51 92t-27 78.5t-7.5 75.5q0 137 94.5 227.5t278.5 90.5q86 0 148.5 -23.5t104.5 -62.5t61.5 -89.5t19.5 -105.5q0 -76 -33 -136.5t-82 -107.5t-107.5 -82.5t-107.5 -64.5 l213 -273q27 43 63 86.5t76.5 79t86 57t94.5 21.5q53 0 71.5 -26.5t18.5 -51.5q0 -43 -30 -60t-73 -22q-27 -2 -50 -4t-45.5 -11t-45 -25.5t-47.5 -45.5q-4 -4 -12 -14t-17.5 -22.5t-17.5 -23.5t-10 -15l303 -387q12 -18 17 -26.5t5 -16.5q0 -20 -15 -22.5t-24 -2.5h-102 q-18 0 -28.5 1t-18.5 5t-16.5 13.5t-22.5 27.5l-195 248q-31 -53 -68.5 -110.5t-87.5 -104.5t-117 -79t-153 -32q-82 0 -147.5 30t-112.5 79t-72.5 112.5t-25.5 131.5zM223 381q0 -45 15.5 -90t46 -82t74.5 -59.5t102 -22.5q57 0 103 22.5t82 59.5t65.5 81t54.5 87l-266 340 q-49 -29 -98.5 -61.5t-89.5 -72.5t-64.5 -90.5t-24.5 -111.5zM442 1180q0 -39 9.5 -71t28 -65.5t46 -72.5t66.5 -88q31 18 72 44.5t76.5 62.5t61 82t25.5 104q0 84 -54 139t-136 55q-29 0 -63.5 -10t-63.5 -32.5t-48.5 -59.5t-19.5 -88z" />
<glyph unicode="'" horiz-adv-x="425" d="M123 1440q0 53 32.5 73.5t61.5 20.5q33 0 50.5 -12.5t25.5 -28.5t9 -32.5t1 -26.5l-72 -523h-38l-68 496q0 10 -1 17.5t-1 15.5z" />
<glyph unicode="(" horiz-adv-x="598" d="M100 739q0 199 52.5 387.5t164.5 352.5q2 4 31 43t67 83t74.5 79.5t59.5 35.5q12 0 22.5 -9t10.5 -25q0 -14 -5.5 -24t-13.5 -20q-39 -47 -100.5 -155.5t-106.5 -276.5q-29 -113 -44 -242.5t-15 -242.5q0 -246 58.5 -479.5t203.5 -431.5q18 -23 23.5 -33t5.5 -21 q0 -14 -9.5 -24t-23.5 -10q-20 0 -56 33.5t-71 74.5t-62.5 76t-29.5 39q-123 174 -179.5 375.5t-56.5 414.5z" />
<glyph unicode=")" horiz-adv-x="598" d="M10 1686q0 35 33 34q20 0 56 -32.5t71 -73.5t61.5 -77t30.5 -40q123 -174 179.5 -375.5t56.5 -412.5q0 -199 -52.5 -388.5t-164.5 -351.5q-4 -4 -32 -43t-66 -84t-75.5 -80.5t-58.5 -35.5q-12 0 -22.5 10t-10.5 26q0 14 6.5 23.5t12.5 17.5q41 51 75.5 111.5t59.5 118.5 q72 162 101.5 336t29.5 354q0 244 -58.5 478.5t-203.5 430.5q-18 25 -23.5 34t-5.5 20z" />
<glyph unicode="*" horiz-adv-x="641" d="M41 1540q0 37 16.5 53.5t32.5 16.5q18 0 28.5 -11.5t41.5 -54.5q41 -55 68.5 -65.5t37.5 -10.5q16 0 21.5 15.5t5.5 29.5q0 29 -2 46.5t-6 39.5q-10 51 -13.5 66.5t-3.5 34.5q0 29 12.5 50.5t38.5 21.5q10 0 30 -11.5t20 -62.5q0 -10 -3.5 -36t-6.5 -54.5t-6 -54 t-3 -35.5q0 -6 3 -28t26 -22q14 0 30.5 8.5t30 20.5t23.5 24.5t16 18.5q33 45 45.5 56.5t28.5 11.5q25 0 35 -19.5t10 -42.5q0 -47 -24.5 -61.5t-79.5 -28.5q-10 -4 -26.5 -9t-32 -13.5t-26 -18.5t-10.5 -24q0 -16 19.5 -32t77.5 -32q51 -14 76.5 -28.5t25.5 -65.5 q0 -37 -15.5 -48t-25.5 -11q-8 0 -14 2t-14.5 9t-19.5 20.5t-30 35.5q-23 29 -50.5 50.5t-49.5 21.5q-18 0 -24.5 -19.5t-6.5 -40.5q0 -10 3 -33.5t8.5 -50t8.5 -50t3 -34.5q0 -33 -12.5 -53t-39.5 -20q-20 0 -35.5 18.5t-15.5 56.5q0 14 2.5 31t12.5 70q4 25 6 39t2 30 q0 14 -4 34t-25 20q-12 0 -37.5 -13.5t-60.5 -58.5q-29 -37 -43.5 -52.5t-32.5 -15.5q-25 0 -35 24t-10 48q0 25 8 39t19.5 22.5t25 10.5t23.5 4q12 2 32.5 7t41 12.5t35 19.5t14.5 31q0 14 -13.5 25t-32 20.5t-38 14.5t-31.5 7q-35 8 -60.5 21.5t-25.5 62.5z" />
<glyph unicode="+" horiz-adv-x="1024" d="M61 537v122h390v383h122v-383h388v-122h-388v-390h-122v390h-390z" />
<glyph unicode="," horiz-adv-x="512" d="M125 141q0 47 35 73t78 26q63 0 105 -49.5t42 -135.5q0 -63 -27.5 -118.5t-64.5 -97.5t-74 -65.5t-55 -23.5q-37 0 -37 33q0 12 7 22.5t38 44.5q18 25 39.5 58t21.5 67q0 12 -6 28.5t-39 41.5q-23 16 -43 36.5t-20 59.5z" />
<glyph unicode="-" horiz-adv-x="641" d="M117 535v51.5t2 36.5q4 14 13 17t20 3h333q20 0 28.5 -5t8.5 -26v-92q-2 -23 -33 -22h-337q-20 0 -27.5 7t-7.5 30z" />
<glyph unicode="." horiz-adv-x="512" d="M127 115q0 33 12.5 56.5t30.5 38.5t40.5 22.5t43.5 7.5q53 0 91 -37t36 -94q-2 -53 -40 -87t-87 -34t-88 33.5t-39 93.5z" />
<glyph unicode="/" horiz-adv-x="894" d="M23 -229q0 10 4 22l718 1897q6 18 10.5 26t14.5 8q6 0 28.5 -7t45.5 -17q31 -10 30 -25q0 -6 -2 -12t-4 -10l-721 -1909q-8 -25 -22 -25q-8 0 -21 5q-41 16 -51 20t-16 6q-14 8 -14 21z" />
<glyph unicode="0" horiz-adv-x="1110" d="M119 717q0 172 29.5 311t87 239.5t138.5 155t185 54.5q100 0 179 -55.5t134.5 -154t85 -234.5t31.5 -298q2 -154 -24.5 -293t-81 -244.5t-137 -167t-193.5 -61.5q-92 0 -172 48.5t-138.5 142.5t-91 234.5t-32.5 322.5zM311 743q0 -133 13.5 -247.5t42.5 -208.5 q27 -80 70.5 -138.5t115.5 -58.5q55 0 95 35t67.5 91t43 128t24 142.5t10.5 136t2 110.5q0 53 -2 121t-11.5 138.5t-26 137t-43 120t-66.5 85t-93 31.5t-91 -31.5t-64.5 -84t-43 -119t-27 -136t-13.5 -135t-3 -117.5z" />
<glyph unicode="1" horiz-adv-x="1110" d="M92 1108q0 31 22.5 41t80.5 27q90 23 156.5 54.5t113.5 63t76.5 61l48.5 48.5q29 33 43 45t37 12q31 0 37 -21.5t6 -33.5v-1374q0 -23 -9.5 -27t-27.5 -4h-103q-23 0 -29.5 6t-6.5 27v1145q-80 -39 -149 -62.5t-120 -36t-81.5 -16.5t-34.5 -4q-23 0 -35.5 7t-17.5 15.5 t-6 16.5t-1 10z" />
<glyph unicode="2" horiz-adv-x="1110" d="M111 31q0 16 22 45l430 563q90 119 142.5 218t52.5 202q0 55 -16.5 102t-47 82t-73.5 55.5t-95 20.5q-78 0 -148.5 -53.5t-98.5 -171.5q-8 -41 -19.5 -68t-46.5 -27q-2 0 -11 1t-20.5 8.5t-19.5 21.5t-8 43q0 68 25.5 138.5t76.5 130t129 97.5t180 38q86 0 156 -30 t120 -80t76.5 -117.5t26.5 -143.5q0 -68 -19.5 -130.5t-48 -117.5t-65.5 -105.5t-70 -95.5l-389 -487h566q25 0 34 -6t9 -31v-31.5v-35t-1.5 -29.5t-1.5 -14q-2 -23 -36 -23h-766q-10 0 -27.5 3t-17.5 28z" />
<glyph unicode="3" horiz-adv-x="1110" d="M98 258q0 41 27 67.5t61 26.5q35 0 53.5 -21.5t30.5 -41.5q14 -29 35 -64t51.5 -64.5t72.5 -50t101 -20.5q61 0 108.5 23.5t79.5 63.5t49 89t17 103q0 12 -5 56t-35.5 98.5t-98 108.5t-190.5 85q-49 12 -64.5 19t-15.5 30t14 32t37 17q33 12 81 32.5t93 55.5t77 86 t32 125q0 37 -13.5 75t-39 69.5t-65.5 51t-93 19.5q-61 0 -102.5 -20.5t-67 -50t-40 -61.5t-22.5 -52q-14 -35 -26.5 -56.5t-40.5 -21.5q-29 0 -40.5 20.5t-11.5 47.5q0 57 28 118.5t78 111.5t123 82t165 32q74 0 138 -23.5t111.5 -66.5t74 -101.5t26.5 -126.5 q0 -111 -61.5 -191t-165.5 -139q100 -47 160.5 -104t92 -114.5t41 -110.5t9.5 -90q0 -59 -20.5 -136t-73 -145t-140.5 -115t-223 -47q-104 0 -181 32t-128 77t-77 94t-26 86z" />
<glyph unicode="4" horiz-adv-x="1110" d="M74 373q0 12 5 22.5t21 36.5l566 987q8 12 20 27.5t41 15.5q45 0 53 -27.5t8 -54.5v-929h127q29 0 34 -13.5t5 -68.5q0 -25 -8 -29t-31 -4h-127v-313q0 -23 -6 -29t-28 -6h-105q-20 2 -27.5 6t-7.5 26v316h-493q-10 0 -28.5 4t-18.5 33zM240 451h374v706z" />
<glyph unicode="5" horiz-adv-x="1110" d="M129 252q0 53 29.5 71.5t54.5 18.5q35 0 53.5 -23.5t34.5 -52.5q10 -20 29.5 -50t48.5 -57.5t69.5 -47t94.5 -19.5q55 0 104 20.5t85 58.5t56.5 92t20.5 122t-22.5 129t-64.5 107.5t-101.5 74t-131.5 27.5q-35 0 -88 -9t-114 -36q-6 -2 -16.5 -7t-22.5 -9.5t-22.5 -8.5 t-12.5 -4q-27 0 -30 21.5t-1 48.5l49 680q4 29 14.5 39t41.5 10h577q23 0 35 -7t12 -32v-102q-2 -16 -9 -23.5t-36 -7.5h-516l-35 -463q41 16 109 36.5t147 20.5q88 0 164 -30.5t133.5 -88t90 -140.5t32.5 -185t-33.5 -186t-94 -144.5t-144.5 -93.5t-184 -33q-92 0 -167 27 t-128.5 67.5t-82 91t-28.5 97.5z" />
<glyph unicode="6" horiz-adv-x="1110" d="M123 528q0 186 61.5 361.5t188.5 314.5q80 86 162.5 140.5t154.5 83t123 39t66 10.5q53 0 53 -43q0 -23 -18.5 -34t-36.5 -18q-37 -12 -66 -23t-55.5 -23.5t-53 -29t-57.5 -40.5q-98 -74 -159.5 -156t-96.5 -161t-49.5 -147.5t-22.5 -115.5q20 14 51 35.5t70 40t88 32 t107 13.5q74 0 139.5 -26.5t114.5 -77t78.5 -126t29.5 -174.5q0 -88 -27.5 -166.5t-80.5 -138t-131 -94.5t-178 -35q-104 0 -188.5 38t-144 110.5t-91 176t-31.5 234.5zM307 582q-4 -150 21.5 -245t66.5 -150.5t91.5 -77t97.5 -21.5q57 0 101 22.5t73.5 60.5t45 89t15.5 107 q0 43 -12 96t-43 101t-83 81t-132 33q-45 0 -82 -10.5t-66.5 -24.5t-52.5 -30.5t-41 -30.5z" />
<glyph unicode="7" horiz-adv-x="1110" d="M154 1317v64.5t2 41.5q2 23 34 23h758q16 0 36 -4t20 -31q0 -14 -15 -49q-14 -35 -33.5 -83t-33.5 -83q-68 -164 -130.5 -326.5t-114.5 -310t-91 -270.5t-60 -209q-6 -29 -11 -44.5t-11 -23.5t-16.5 -10t-28.5 -2h-129q-12 0 -25.5 3t-13.5 22q0 10 3 17t13 34l518 1202 h-635q-23 0 -29.5 7t-6.5 32z" />
<glyph unicode="8" horiz-adv-x="1110" d="M119 342q0 76 25.5 135.5t68.5 108.5t98.5 90t116.5 82q-35 25 -78 57.5t-81 77.5t-64.5 105.5t-26.5 140.5q0 66 22.5 126t67.5 105q37 39 79 60.5t83 32t77 13.5t60 3q63 0 110.5 -11.5t80.5 -26t51 -28.5t25 -20q41 -35 68.5 -91.5t27.5 -134.5q0 -74 -25.5 -130 t-64.5 -100t-86 -77.5t-90 -60.5q61 -41 119.5 -82t104.5 -92.5t74.5 -115t28.5 -147.5t-33.5 -155.5t-93 -124.5t-143.5 -83t-182 -30q-102 0 -180 30t-131.5 81t-81 118.5t-27.5 143.5zM289 377q0 -53 16.5 -103.5t49 -91.5t83.5 -65.5t121 -24.5q57 0 104.5 18.5t81 51.5 t51 77t17.5 93q0 70 -35 137.5t-133 138.5q-6 4 -24.5 16.5t-39 27t-39 26.5t-26.5 18q-55 -43 -98 -76.5t-72 -69.5t-43 -77t-14 -96zM342 1167q0 -55 20.5 -100t54.5 -83t77 -68.5t86 -55.5q16 10 49 31.5t64.5 55.5t55 82t23.5 112q0 45 -15.5 86t-44 71.5t-68.5 49 t-91 18.5q-43 0 -81 -13.5t-66.5 -39t-46 -62.5t-17.5 -84z" />
<glyph unicode="9" horiz-adv-x="1110" d="M117 1053q0 90 28.5 167.5t82 134t130 89.5t174.5 33q106 0 189.5 -39t141 -113t87 -179.5t29.5 -236.5q0 -176 -44 -314t-114.5 -242.5t-156.5 -177.5t-169 -119t-154 -66.5t-112 -20.5q-12 0 -31.5 6.5t-19.5 34.5q0 25 18.5 35t69.5 27q119 41 212 115.5t157.5 169 t101.5 201t45 210.5q-59 -43 -129.5 -84t-173.5 -41q-68 0 -132 24.5t-115.5 75t-83 128t-31.5 182.5zM295 1083q0 -55 15.5 -110t48 -99.5t80.5 -72t114 -27.5q47 0 86 11.5t68.5 27.5t50.5 31.5t33 25.5q2 66 -6.5 152t-38 162t-82 128t-138.5 52q-102 0 -166.5 -78 t-64.5 -203z" />
<glyph unicode=":" horiz-adv-x="598" d="M211 115q0 63 44 94t87 31q53 0 91 -37t38 -94q-2 -53 -40 -87t-91 -34q-49 0 -89 33.5t-40 93.5zM211 649q0 63 44 95t87 32q53 0 91 -38t38 -93q-2 -55 -41 -89t-90 -34q-47 0 -88 34t-41 93z" />
<glyph unicode=";" horiz-adv-x="598" d="M211 141q0 47 35 73t76 26q61 0 102 -49.5t41 -135.5q0 -63 -26.5 -119.5t-62.5 -97.5t-73 -65.5t-55 -24.5q-16 0 -25.5 10.5t-9.5 22.5q0 14 7 24.5t36 44.5q16 20 38.5 55.5t22.5 69.5q0 10 -5 26.5t-40 43.5q-23 16 -42 36.5t-19 59.5zM213 649q0 33 12.5 57.5 t31.5 40t42 22.5t43 7q53 0 92 -38t37 -93q-2 -57 -42 -90t-87 -33q-49 0 -89 34t-40 93z" />
<glyph unicode="&#x3c;" horiz-adv-x="1024" d="M0 653v144l1024 510v-131l-889 -451l889 -455v-131z" />
<glyph unicode="=" horiz-adv-x="1024" d="M0 354v121h1024v-121h-1024zM0 715v121h1024v-121h-1024z" />
<glyph unicode="&#x3e;" horiz-adv-x="1024" d="M0 139v131l889 455l-889 451v131l1024 -510v-144z" />
<glyph unicode="?" horiz-adv-x="854" d="M70 1206q0 47 22.5 95.5t67.5 87t113.5 63.5t160.5 25q86 0 150.5 -25t108.5 -64.5t65.5 -91t21.5 -104.5q0 -47 -13 -86t-34.5 -69.5t-47.5 -56.5t-50 -48q-49 -47 -80 -85t-48.5 -81t-23.5 -98.5t-8 -137.5q0 -43 -5 -56t-36 -13q-39 0 -47 5t-12 34l-25 301 q0 18 1 30.5t6 22.5t15.5 19.5t28.5 23.5q39 27 74 53.5t61.5 58t42 69.5t15.5 89q0 31 -9.5 65t-31 63.5t-54 48t-81.5 18.5q-47 0 -78 -17.5t-49.5 -41t-27.5 -49t-13 -42.5q-10 -39 -27.5 -71.5t-64.5 -32.5q-25 0 -56.5 21.5t-31.5 76.5zM297 115q0 47 35 88t92 41 q55 0 94 -40t35 -95q-4 -53 -42 -87t-89 -34q-31 0 -53.5 12t-39 30.5t-24.5 41t-8 43.5z" />
<glyph unicode="@" horiz-adv-x="1835" d="M139 479q0 188 71 364.5t195.5 313.5t298 219t379.5 82q137 0 250 -41t193 -116.5t124 -184t44 -246.5q0 -139 -39 -269t-104.5 -231.5t-150.5 -162t-177 -60.5q-41 0 -69 12.5t-45 29t-25.5 32t-10.5 23.5q-8 25 -9 48t-1 46q-23 -29 -51.5 -62.5t-65.5 -61.5t-85 -46 t-109 -18q-35 0 -79 13t-84 49t-67.5 99.5t-27.5 165.5q0 113 35.5 217.5t95 184t136.5 128t161 48.5q92 0 150 -51.5t93 -143.5l35 148h121l-68 -299q-10 -47 -20 -97.5t-19.5 -98.5t-14.5 -89t-5 -72q0 -37 9 -57.5t21.5 -31.5t25 -14t18.5 -3q43 0 100 48t108.5 133 t87 198.5t35.5 244.5q0 111 -34.5 202t-102 157.5t-165 102.5t-222.5 36q-174 0 -326.5 -71.5t-267 -194.5t-181.5 -286t-67 -343q0 -147 52.5 -265t144.5 -201t219 -127t279 -44q106 0 217.5 27.5t234.5 93.5q43 23 75 44.5t59.5 43t52 44t51.5 46.5l55 -65 q-25 -23 -49.5 -46.5t-52.5 -46.5q-45 -37 -110.5 -77.5t-148.5 -74.5t-180.5 -56.5t-205.5 -22.5q-137 0 -276.5 41t-253 130t-185.5 227.5t-72 334.5zM633 485q0 -74 20.5 -118.5t49 -68.5t59.5 -31t51 -7q59 0 114.5 37t97.5 98.5t68.5 143.5t28.5 172q2 68 -16.5 112.5 t-46 72.5t-59 39t-58.5 11q-76 0 -133 -46t-96 -114.5t-59.5 -149.5t-20.5 -151z" />
<glyph unicode="A" horiz-adv-x="1236" d="M0 18q0 2 5 15.5t5 17.5l531 1364q8 20 15 25.5t24 5.5h88q10 -2 15 -6t13 -21l533 -1368q4 -10 6 -17t2 -16q0 -14 -8 -16t-21 -2h-141q-27 0 -34 4t-17 27l-203 538h-440l-199 -536q-10 -25 -17 -29t-28 -4h-96q-10 0 -21.5 2t-11.5 16zM416 686h354l-176 490z" />
<glyph unicode="B" horiz-adv-x="1193" d="M135 82v1294q0 27 6 38t27 18q18 6 55 11t82 8t92 5t82 2q88 0 193.5 -14t189.5 -66q78 -49 113 -118.5t35 -147.5q0 -63 -21.5 -114.5t-53.5 -90.5t-72 -66.5t-77 -45.5q-10 -6 -22 -11.5t-25 -9.5q12 -4 23.5 -5t23.5 -5q160 -39 239 -141.5t79 -239.5 q0 -98 -37 -165.5t-94.5 -112t-129 -68t-141 -34.5t-132 -13t-99.5 -2q-104 0 -190 8t-113 18q-23 6 -28 18.5t-5 49.5zM334 119q29 -4 72 -7t98 -3q82 0 152.5 15t122.5 49t82 87t30 129q0 80 -25.5 130t-48.5 75q-35 39 -78 62.5t-89 33.5t-93 13.5t-90 3.5 q-41 0 -68.5 -1t-64.5 -4v-583zM334 811q47 -2 87 -2t85 4q98 8 157.5 40t90 72t40 82t9.5 68q0 98 -41 152.5t-96.5 79t-108.5 28.5t-78 4q-41 0 -76.5 -3t-68.5 -7v-518z" />
<glyph unicode="C" horiz-adv-x="1236" d="M72 733q0 131 35.5 263t114.5 238.5t204 174.5t303 68q113 0 202 -30t149.5 -74t92 -94t31.5 -89q0 -43 -28.5 -68.5t-65.5 -25.5q-20 0 -43.5 9t-46.5 44q-14 23 -38 57.5t-60.5 66.5t-89 55.5t-121.5 23.5q-88 0 -166 -40t-135.5 -115t-91 -181.5t-33.5 -237.5 q0 -141 35.5 -263t101 -210t157 -138t201.5 -50q80 0 149.5 24.5t137.5 69.5q27 16 40 24.5t30 8.5q18 0 31.5 -13.5t13.5 -35.5q0 -27 -32 -66t-90.5 -74t-139 -60.5t-181.5 -25.5q-168 0 -292.5 62.5t-207.5 169t-125 244t-42 288.5z" />
<glyph unicode="D" horiz-adv-x="1366" d="M135 53v1315q0 33 7.5 43t23.5 14q18 6 55 13.5t81 11.5t93 7t97 3q225 0 378.5 -68.5t246.5 -176t134 -238.5t41 -256q0 -111 -23.5 -199t-57 -154.5t-71.5 -111.5t-69 -72q-129 -115 -293 -156.5t-336 -41.5q-27 0 -64.5 1t-77.5 4t-76 6t-56 9q-23 6 -28 18.5t-5 28.5 zM338 121q39 -6 106 -6q164 0 283 44t196.5 125t114.5 193.5t37 249.5q0 117 -32.5 229.5t-110.5 200.5q-86 98 -204 138t-261 40q-45 0 -72.5 -3t-56.5 -7v-1204z" />
<glyph unicode="E" horiz-adv-x="980" d="M135 37v1360q0 27 7.5 38t33.5 11h713q16 0 27.5 -4t11.5 -27v-47t-2 -31q-2 -23 -37 -22h-553v-494h467q16 0 27.5 -4t11.5 -26v-48t-2 -32q-4 -12 -12.5 -15.5t-24.5 -3.5h-467v-561h553q20 0 29.5 -4t9.5 -29v-65q0 -23 -10.5 -28t-28.5 -5h-713q-23 0 -32 5t-9 32z " />
<glyph unicode="F" horiz-adv-x="937" d="M135 37v1364q0 27 7.5 36t29.5 11h707q23 -2 31 -5t8 -24v-47t-3 -31q0 -10 -5 -19t-31 -7h-543v-494h457q23 0 30.5 -5t7.5 -30v-42.5t-2 -28.5q-2 -16 -10 -19.5t-26 -3.5h-457v-653q0 -29 -9.5 -34t-31.5 -5h-117q-25 0 -34 4t-9 33z" />
<glyph unicode="G" horiz-adv-x="1366" d="M74 723q0 166 49 304t138 238.5t214 156t279 55.5q127 0 223 -34t160.5 -82t97.5 -101.5t33 -90.5q0 -47 -30 -71.5t-64 -24.5q-41 0 -65 26.5t-56 76.5q-16 23 -40 52t-59.5 57t-86 46.5t-119.5 18.5q-86 0 -168 -36t-145.5 -110t-102.5 -185.5t-39 -262.5 q0 -137 33.5 -256t98 -207t159 -139.5t217.5 -51.5q57 0 114.5 12.5t96.5 39.5q41 27 48 60.5t7 82.5v301h-279q-25 0 -31.5 5t-6.5 34v63q4 14 13 16.5t25 2.5h439q29 2 33 -9.5t4 -33.5v-430q0 -27 -1 -43.5t-4.5 -27.5t-8.5 -20.5t-13 -21.5q-51 -66 -168 -115t-285 -49 q-186 0 -320 61.5t-221 166t-128 240.5t-41 286z" />
<glyph unicode="H" horiz-adv-x="1280" d="M137 39v1372q0 20 7.5 27.5t29.5 7.5h125h11q14 0 20 -4q8 -6 8 -31v-590h606v584q0 23 4 33q3 8 24 8h9h125q23 0 31 -4t8 -31v-1378q0 -25 -9.5 -29t-29.5 -4h-125q-25 0 -31 7t-6 32v653h-606v-653q0 -29 -8 -34t-31 -5h-125q-20 0 -28.5 6t-8.5 33z" />
<glyph unicode="I" horiz-adv-x="468" d="M133 41v1364q1 25 9 34q7 7 22 7h8h123q23 0 32 -6t9 -31v-1368q0 -29 -9.5 -35t-31.5 -6h-123q-18 0 -28.5 6t-10.5 35z" />
<glyph unicode="J" horiz-adv-x="468" d="M-227 -436q0 23 15 32t32 15q45 20 76.5 37.5t68.5 52.5q57 55 90 117.5t49.5 124t20.5 119t6 102.5v1245q0 23 6 30t27 7h131q23 0 31 -6t8 -35v-1184q0 -43 -3 -100.5t-17.5 -122t-43 -134t-80.5 -138.5q-53 -70 -110 -112t-107.5 -65.5t-86.5 -30.5t-46 -7 q-29 0 -48 13t-19 40z" />
<glyph unicode="K" horiz-adv-x="1110" d="M135 41v1364q0 27 8.5 34t30.5 7h119h10q18 0 23 -6q6 -8 6 -33v-608l485 606q16 23 25.5 30t25.5 11h113q12 0 21.5 -5t9.5 -18q0 -10 -5.5 -16t-15.5 -23l-454 -577l555 -756l8 -12t4 -16q0 -23 -27 -23h-162q-29 0 -38 3t-25 26l-520 731v-729q0 -23 -10.5 -27 t-28.5 -4h-117q-23 0 -32 6t-9 35z" />
<glyph unicode="L" horiz-adv-x="937" d="M135 35v1376q0 25 8.5 30t26.5 7h131q23 0 29 -7t8 -30v-1276h539q23 0 28.5 -8t5.5 -29v-80q-4 -14 -13 -16t-24 -2h-704q-23 0 -29 9t-6 26z" />
<glyph unicode="M" horiz-adv-x="1622" d="M135 39v1368q0 23 7.5 31t29.5 8h139q23 0 31 -6t18 -33l455 -1063l434 1061q12 29 19.5 35t34.5 6h141q23 0 32 -4t9 -31v-1376q-2 -23 -9.5 -29t-31.5 -6h-115q-25 0 -31 6t-6 33v1106l-452 -1106q-14 -33 -20.5 -40t-22.5 -7q-18 0 -25.5 9t-19.5 38l-459 1106v-1108 q0 -27 -9.5 -32t-27.5 -5h-100q-14 4 -17.5 11t-3.5 28z" />
<glyph unicode="N" horiz-adv-x="1409" d="M137 39v1368q0 25 7.5 32t31.5 7h119q20 0 26.5 -4t22.5 -27l770 -1067v1059q0 20 4 27.5t17 11.5h106q20 0 25.5 -7t5.5 -30v-1372q0 -27 -7.5 -32t-27.5 -5h-78q-16 2 -23.5 7t-21.5 22l-817 1134v-1124q0 -16 -3 -25.5t-15 -11.5q-4 -2 -42 -2h-65q-23 0 -29 8t-6 31z " />
<glyph unicode="O" horiz-adv-x="1449" d="M72 723q0 137 39 272t119.5 243t205.5 174.5t295 66.5q156 0 274.5 -61.5t199.5 -162t124 -228.5t49 -261q1 -25 1 -49q0 -141 -39 -265q-46 -146 -133 -253t-208.5 -168.5t-269.5 -61.5q-141 0 -261 55.5t-208 155t-138 237.5t-50 306zM285 735q0 -121 20 -215 q20 -102 63.5 -179t99.5 -129t122.5 -79t136.5 -27q88 0 180 47.5t158 149.5q37 57 57.5 119.5t30.5 124t11 116t1 97.5q-4 180 -52 297t-115.5 182.5t-142.5 91t-132 25.5q-98 0 -188 -51q-72 -41 -119 -102.5t-77 -135.5t-42 -159t-12 -173z" />
<glyph unicode="P" d="M135 37v1337q0 10 1 22.5t7 20.5q8 8 44 16.5t87.5 14.5t110.5 9t113 3q39 0 90 -3t107.5 -14t112.5 -35t103 -65q18 -18 40 -43.5t40.5 -61.5t30.5 -83t12 -106q0 -23 -3 -54.5t-14 -70.5t-35 -80t-64 -80q-80 -78 -198 -114t-269 -36q-35 0 -60.5 1t-54.5 6v-584 q0 -25 -8.5 -31t-28.5 -6h-125q-23 0 -31 7t-8 30zM336 739q23 -4 44 -6t54 -2q51 0 119 8.5t128 40t101 95t41 172.5q0 111 -45 171t-105.5 88.5t-120.5 34t-93 5.5q-43 0 -70 -4.5t-53 -8.5v-594z" />
<glyph unicode="Q" horiz-adv-x="1492" d="M74 715q0 172 49 312t137 240.5t211 155t272 54.5q158 0 283 -58.5t211 -160t132 -238.5t46 -295q0 -145 -37 -266t-103.5 -215t-157.5 -159t-202 -93v-2q10 -43 38 -99.5t110 -121.5q49 -39 135 -84t217 -76q41 -10 56.5 -17.5t15.5 -29.5q0 -8 -6 -24.5t-45 -16.5 q-12 0 -41 4t-67 11t-82 17.5t-87 22.5q-63 20 -132 53t-134.5 81t-122.5 113.5t-96 151.5q-145 14 -258 78t-188.5 162t-114.5 226t-39 274zM285 731q0 -164 40 -283.5t104.5 -198.5t147 -117t168.5 -38q104 0 196.5 52.5t158.5 150.5q63 98 84 211q19 94 19 192 q0 19 -1 37q-4 117 -28.5 230.5t-94.5 208.5q-70 98 -160 140t-174 42q-100 0 -193 -50.5t-155 -142.5q-43 -61 -77.5 -165.5t-34.5 -268.5z" />
<glyph unicode="R" horiz-adv-x="1110" d="M137 35v1333q0 33 6.5 44t26.5 20q16 6 53 11t82 9t93 6t89 2q43 0 94.5 -2t103.5 -12t103.5 -30.5t94.5 -57.5q8 -6 27.5 -25.5t41 -54.5t38 -86t16.5 -119q0 -147 -93.5 -248.5t-265.5 -144.5l416 -623q6 -10 10 -18t4 -19q0 -16 -11 -18t-22 -2h-147q-29 0 -37 4 t-22 29l-342 547q-14 23 -40 49t-67 26q-23 0 -34 -8t-15 -20.5t-5 -24.5t-1 -20v-539q0 -27 -8.5 -35t-30.5 -8h-119q-23 0 -31 5t-8 30zM334 748q45 0 71.5 -1.5t43 -1.5t26.5 1.5t23 1.5q135 12 220 86.5t85 214.5q0 111 -40 171t-95.5 87.5t-112.5 33t-90 5.5 q-45 0 -72.5 -3.5t-58.5 -7.5v-587z" />
<glyph unicode="S" d="M80 279q0 49 30.5 74.5t65.5 25.5q45 0 67.5 -27.5t39.5 -60.5q12 -25 30.5 -57.5t49 -62.5t75.5 -51.5t111 -21.5q115 0 181.5 70t66.5 170q0 66 -24.5 114t-65.5 83.5t-95.5 63.5t-113.5 56l-111 54q-31 14 -80 41.5t-95 72.5t-80 110.5t-34 158.5q0 82 30 152.5 t85 121.5t133 81t176 30q92 0 167 -25t128 -61.5t82 -79.5t29 -82q0 -41 -24.5 -67.5t-63.5 -26.5t-60.5 21.5t-38.5 49.5q-16 25 -34.5 50.5t-46 48t-63.5 37t-85 14.5q-51 0 -93 -18.5t-72 -49.5t-46 -70.5t-16 -84.5q0 -59 22.5 -101.5t60.5 -75t89 -58.5t110 -52 l107 -49q39 -18 92 -49t102.5 -80.5t84 -119t34.5 -167.5q0 -90 -33.5 -166t-93 -130t-142.5 -85t-183 -31q-123 0 -210 36t-141.5 86t-79 102.5t-24.5 85.5z" />
<glyph unicode="T" horiz-adv-x="1024" d="M16 1354q0 61 4.5 76.5t32.5 15.5h920q27 0 32 -15.5t5 -78.5q0 -23 -7.5 -30t-29.5 -7h-361v-1276q-2 -23 -7 -31t-30 -8h-118q-25 0 -34 6t-11 35v1274h-359q-23 0 -30 8t-7 31z" />
<glyph unicode="U" horiz-adv-x="1193" d="M117 459v952q0 25 7 31t30 6h129q25 0 32 -5t7 -32v-917q0 -37 5 -99.5t32.5 -124t89 -105.5t172.5 -44q76 0 144.5 28.5t108.5 92.5q35 53 40.5 102t5.5 109v956q0 23 6 31t26 8h29.5h33t28 -1t14.5 -1q23 -2 22 -37v-979q-2 -63 -9 -127.5t-50 -134.5 q-63 -106 -170 -152.5t-248 -46.5q-113 0 -189.5 24.5t-125.5 59.5t-76 70t-39 57q-39 70 -47 144.5t-8 134.5z" />
<glyph unicode="V" horiz-adv-x="1150" d="M0 1423q0 18 13.5 20.5t21.5 2.5h135q25 0 32 -4t17 -33l385 -1075l375 1075q8 23 14 30t27 7h113q18 -6 18 -23q0 -6 -6 -30l-498 -1362q-10 -23 -16 -27t-27 -4q-47 0 -60.5 4t-21.5 27l-514 1362q-4 16 -6 21t-2 9z" />
<glyph unicode="W" horiz-adv-x="1748" d="M0 1419q0 16 10 21.5t25 5.5h129h10q17 0 23 -5q8 -7 14 -36l281 -1043l339 1037q10 33 15.5 40t17.5 7h47q10 0 13.5 -7t11.5 -30l352 -1047l289 1045q6 23 13 31t30 8h106q8 -2 15.5 -5t7.5 -18q0 -6 -1 -11t-7 -28l-398 -1351q-6 -20 -12 -26.5t-22 -6.5h-60 q-18 2 -28 31l-357 1016l-332 -1014q-8 -23 -13 -28t-27 -5q-49 0 -62.5 4t-23.5 29l-398 1351q-6 20 -7 25.5t-1 9.5z" />
<glyph unicode="X" horiz-adv-x="1110" d="M0 23q0 8 14 30l441 707l-371 629q-10 14 -12 20t-2 12q0 25 25 25h7h129q29 0 36 -4t20 -27l282 -469l293 469q14 23 21 27q2 2 8 3t18.5 1h35h59.5q6 0 16 -2t10 -19q0 -12 -10 -26l-369 -600l445 -746q14 -23 14 -33q0 -14 -10 -17t-19 -3h-137q-27 0 -34 5t-21 28 l-350 581l-357 -573q-16 -29 -24 -35t-27 -6h-100q-10 0 -20.5 3t-10.5 20z" />
<glyph unicode="Y" horiz-adv-x="1110" d="M0 1425q0 12 9 16.5t22 4.5h147q23 0 31 -4t18 -25l353 -602l350 598q14 23 19 27t20 6h114q16 0 20.5 -8t4.5 -13q0 -8 -2 -14t-10 -20l-443 -740v-618q0 -25 -9 -29t-32 -4h-133q-20 0 -26.5 7t-6.5 26v629l-432 729q-10 18 -12 23t-2 11z" />
<glyph unicode="Z" horiz-adv-x="1024" d="M35 20q0 4 3 10.5t13 28.5l668 1256h-592q-6 0 -15.5 1t-13.5 7q-4 4 -5 16.5t-1 69.5q0 23 6 30t31 7h807q23 0 37 -3t14 -20q0 -4 -1 -12t-9 -25l-670 -1255h637q20 0 27.5 -4t7.5 -27v-17v-27.5t-1 -27t-1 -14.5q-2 -14 -29 -14h-866q-18 0 -32.5 2t-14.5 18z" />
<glyph unicode="[" horiz-adv-x="555" d="M135 -221v1890q0 23 8.5 30t32.5 7h322q20 0 27 -4t7 -27q0 -43 -5 -53t-27 -10h-205v-1778h207q23 0 26.5 -8t3.5 -27q0 -39 -5 -48t-29 -9h-324q-25 0 -32 7t-7 30z" />
<glyph unicode="\" horiz-adv-x="894" d="M20 1675q0 10 7.5 14.5t23.5 10.5q25 10 47.5 17t26.5 7q10 0 14 -8t11 -26l718 -1897q2 -4 4 -10t2 -12q0 -10 -14 -21q-6 -2 -17.5 -6t-51.5 -20q-12 -4 -21 -5q-12 0 -22 25l-721 1909q-2 4 -4.5 10t-2.5 12z" />
<glyph unicode="]" horiz-adv-x="555" d="M20 -227q0 43 4.5 53t28.5 10h205v1778h-207q-23 0 -27 8t-4 27q0 39 4.5 48t30.5 9h324q25 0 32 -7t7 -30v-1890q0 -23 -8.5 -30t-32.5 -7h-322q-20 0 -27.5 4t-7.5 27z" />
<glyph unicode="^" horiz-adv-x="1492" d="M319 717l369 729h129l357 -729h-156l-268 559l-275 -559h-156z" />
<glyph unicode="_" horiz-adv-x="1024" d="M-20 -154h1064v-102h-1064v102z" />
<glyph unicode="`" horiz-adv-x="512" d="M100 1403q0 29 16.5 51.5t41.5 22.5q16 0 29.5 -10.5t23.5 -20.5l178 -182q14 -14 17.5 -25.5t3.5 -19.5q0 -25 -12.5 -36.5t-24.5 -11.5q-10 0 -18.5 5.5t-16.5 9.5l-199 141q-12 10 -25.5 26.5t-13.5 49.5z" />
<glyph unicode="a" horiz-adv-x="894" d="M55 254q0 88 41 148.5t115 103.5t176 76.5t225 70.5v105q0 31 -2 68.5t-16 71.5t-46 56.5t-89 22.5q-45 0 -75 -15.5t-49.5 -36t-30.5 -44t-17 -37.5q-10 -29 -27.5 -58.5t-64.5 -29.5q-23 0 -52.5 18.5t-29.5 67.5q0 45 27.5 89t76.5 78.5t117.5 55t150.5 20.5 q113 0 174.5 -35.5t90 -87t35 -107.5t6.5 -97v-543q-2 -70 -16.5 -112t-72.5 -72q-29 -16 -65.5 -26.5t-74.5 -16.5t-77 -9.5t-71 -3.5q-20 0 -79 4.5t-121 31t-110.5 83t-48.5 160.5zM242 281q0 -6 3 -37t22.5 -67t62.5 -63.5t121 -27.5q59 0 91.5 15.5t48 39t18.5 49 t3 46.5v321q-84 -27 -152.5 -51.5t-116.5 -55t-74.5 -70.5t-26.5 -99z" />
<glyph unicode="b" d="M113 276v1250q0 25 6 33t33 8h100q29 0 37 -6.5t8 -34.5v-574q16 14 45 37t69 44.5t91 36.5t114 15q80 0 151 -31.5t122 -95t80.5 -157.5t29.5 -219q0 -162 -44 -277t-116.5 -188.5t-168 -107.5t-197.5 -34q-82 0 -158.5 20.5t-138.5 74.5q-23 18 -35 36.5t-18 41t-8 53 t-2 75.5zM297 303q0 -20 4 -54t22.5 -68t58.5 -58.5t112 -24.5q63 0 122.5 26t104.5 78t71.5 133t26.5 191q0 80 -15.5 156t-49 135.5t-88 95t-131.5 35.5q-53 0 -114 -25.5t-124 -86.5v-533z" />
<glyph unicode="c" horiz-adv-x="937" d="M66 520q0 123 29.5 226.5t88 179t143.5 117.5t195 42q88 0 153.5 -29.5t109.5 -70.5t65.5 -85t21.5 -75q0 -49 -30.5 -67.5t-53.5 -18.5q-31 0 -52.5 18.5t-33.5 43.5q-16 31 -33.5 61.5t-40 54t-54 38t-76.5 14.5q-53 0 -101.5 -25.5t-85.5 -75t-58.5 -120t-21.5 -162.5 q0 -113 27 -197t70 -139t98 -83t113 -28q53 0 93 18.5t69.5 44t49 53.5t31.5 48q20 33 30.5 45t29.5 12q6 0 24.5 -7t18.5 -42q0 -33 -20.5 -89t-66.5 -111.5t-120 -95.5t-180 -40q-102 0 -182 42t-135.5 115t-85 172t-29.5 216z" />
<glyph unicode="d" d="M66 498q0 104 30.5 209.5t91 189.5t150.5 136t209 52q80 0 131 -21.5t92 -45.5v504q0 25 6 35t33 10h104q23 -1 33 -7q8 -5 8 -25v-9v-1309q0 -29 -3 -57.5t-25 -57.5q-27 -37 -74 -61.5t-101.5 -38.5t-108.5 -20.5t-95 -6.5q-109 0 -198 34t-152.5 100.5t-97 164 t-33.5 224.5zM250 547q0 -106 25.5 -189.5t69.5 -139.5t106.5 -86t136.5 -30q68 0 103.5 17.5t53 42t21.5 52.5t4 50v639q-29 25 -74 50.5t-123 25.5q-72 0 -131 -33t-102 -90t-66.5 -137t-23.5 -172z" />
<glyph unicode="e" horiz-adv-x="980" d="M66 528q0 111 19 192t50 138q8 16 33 54t71 76t113.5 67.5t161.5 29.5q121 0 197.5 -45t119.5 -105.5t59.5 -121.5t16.5 -92q0 -43 -20.5 -52.5t-38.5 -13.5l-627 -92q6 -109 35 -187.5t72 -129.5t97 -77t114 -26q92 0 161.5 48.5t120.5 132.5q23 37 32 48t28 11 q10 0 25.5 -8t15.5 -41q0 -20 -19.5 -78.5t-65.5 -121t-126 -111t-199 -48.5q-47 0 -99.5 10.5t-103.5 38t-97 72.5t-81 117q-41 78 -53 161t-12 154zM221 664l490 75q-10 98 -70.5 164t-148.5 66q-125 0 -189.5 -85t-81.5 -220z" />
<glyph unicode="f" horiz-adv-x="555" d="M18 997q0 43 4.5 53.5t32.5 10.5h117q4 70 16.5 161t47.5 169q37 78 103.5 135t152.5 57q41 0 66.5 -20.5t25.5 -59.5q0 -33 -18.5 -50t-43.5 -21q-8 -2 -31.5 -1t-31.5 1q-70 0 -101.5 -57.5t-31.5 -157.5q0 -70 8 -102t18 -54h170q31 2 36 -9.5t5 -56.5q0 -20 -10 -23 t-31 -3h-166v-926q0 -29 -10 -36t-31 -7h-106q-25 0 -31 9t-6 36v924h-115q-23 0 -31 3t-8 25z" />
<glyph unicode="g" horiz-adv-x="980" d="M37 -246q0 84 62.5 153.5t152.5 127.5q-20 6 -48 14t-52.5 23.5t-41 39t-16.5 60.5q0 33 20.5 67.5t49.5 67.5t59.5 60.5t52.5 46.5q-29 16 -66.5 47t-72.5 98q-23 43 -32 88t-9 88q0 78 27 142.5t76 110.5t116.5 71.5t149.5 25.5q55 0 91 -9t69 -19q35 -14 60.5 -21.5 t62.5 -7.5q12 0 42.5 4t64.5 10.5t62.5 10.5t32.5 4q8 0 13.5 -9.5t8.5 -20.5t4 -21.5t1 -12.5q0 -10 -5 -13t-18 -7l-174 -41q23 -31 46.5 -79t23.5 -140q0 -94 -35 -160t-89 -108t-118.5 -61t-126.5 -19q-39 0 -67.5 5t-57.5 11q-37 -35 -59.5 -66.5t-22.5 -62.5 q0 -25 16.5 -39t44 -22.5t65.5 -11.5t83 -5l219 -12q33 -2 89.5 -10.5t108.5 -33t91 -72.5t39 -132q0 -53 -30.5 -121.5t-100.5 -130t-185.5 -103.5t-283.5 -42q-63 0 -108.5 6t-79.5 16q-98 27 -151.5 84.5t-53.5 130.5zM215 -178q0 -49 25.5 -83t67.5 -55.5t94.5 -30.5 t107.5 -9q59 0 121.5 16t114 45t84 71t32.5 91q0 45 -22.5 71.5t-54 40t-66.5 18.5t-60 7q-16 0 -61 2t-95 4t-96.5 4t-64.5 4q-49 -45 -88 -89t-39 -107zM264 760q0 -70 19.5 -122t52.5 -88t71.5 -53.5t79.5 -17.5q33 0 68 11.5t61.5 37t44 68.5t17.5 104q0 37 -6 74 q-8 45 -21.5 76t-28 51.5t-25.5 31.5l-15 15q-23 16 -51.5 27.5t-63.5 11.5t-71 -11t-65.5 -38t-48 -71t-18.5 -107z" />
<glyph unicode="h" d="M121 43v1487q0 18 7 26.5t30 10.5h108q23 0 31 -7.5t8 -29.5v-574q14 12 39 35t63.5 43.5t91 35.5t122.5 15q80 0 135 -20.5t91 -53t55.5 -72.5t29.5 -80t12 -74.5t2 -55.5v-680q0 -29 -5 -39t-34 -10h-102q-27 2 -35 7t-8 34v664q0 33 -3 71.5t-24 75.5q-25 47 -74 75.5 t-108 28.5q-72 0 -133.5 -33.5t-114.5 -80.5v-793q0 -29 -7 -39t-32 -10h-108q-23 0 -30 10t-7 33z" />
<glyph unicode="i" horiz-adv-x="425" d="M102 1350q0 47 32 77.5t81 30.5q43 0 74 -27.5t35 -74.5q0 -43 -29 -78t-82 -35t-82 32t-29 75zM121 37v985q0 20 4 29.5t31 9.5h106q25 0 33 -7t8 -32v-985q0 -27 -9 -32t-32 -5h-110q-23 0 -27 7t-4 30z" />
<glyph unicode="j" horiz-adv-x="425" d="M-141 -449q0 18 9 28.5t19 17.5q84 55 131.5 126.5t70 158.5t28.5 187.5t10 211.5v737q0 27 8 35t33 8h108q23 0 30 -9.5t7 -31.5v-707q-2 -131 -13 -243.5t-58 -225.5q-41 -96 -92.5 -160.5t-100.5 -102.5t-89 -53t-54 -15q-18 0 -32.5 9t-14.5 29zM111 1350 q0 47 31.5 77.5t78.5 30.5q49 0 78 -30.5t31 -71.5v-5q0 -38 -27 -72q-29 -36 -82 -36t-81.5 32t-28.5 75z" />
<glyph unicode="k" horiz-adv-x="937" d="M121 33v1501q0 23 9 28t26 5h108q18 0 28.5 -3t10.5 -26v-954l402 440q23 25 33 31t38 6h69.5t37 -2t14.5 -7t2 -14q0 -10 -6 -17t-16 -20l-375 -417l434 -531q16 -23 16 -33q0 -16 -11 -18t-15 -2h-140q-25 0 -34 4t-27 27l-422 522v-522q0 -23 -8 -27t-31 -4h-108 q-23 0 -29 5t-6 28z" />
<glyph unicode="l" horiz-adv-x="425" d="M123 37v1497q0 23 10 28t31 5h102q23 0 31 -5.5t8 -27.5v-1497q0 -25 -9 -31t-30 -6h-104q-25 0 -32 5t-7 32z" />
<glyph unicode="m" horiz-adv-x="1579" d="M119 39v823q0 53 7 83t44 59q51 37 143.5 59t182.5 22q78 0 131 -13t89 -32.5t55.5 -41t31.5 -35.5q16 18 39.5 39.5t61.5 40t92.5 30.5t131.5 12q125 0 193 -35.5t98.5 -88t35.5 -108.5t5 -97v-717q0 -23 -7 -30t-30 -9h-108q-20 0 -28.5 6t-8.5 33v668q0 41 -4 87 t-22.5 86t-58.5 65.5t-114 25.5q-53 0 -88 -15.5t-53 -31.5q-43 -39 -50 -80t-7 -88v-717q0 -23 -6.5 -31t-28.5 -8h-107q-23 0 -32 5t-9 32v688q0 27 -3 70t-21.5 84t-58.5 69.5t-113 28.5q-74 0 -115 -24.5t-59.5 -59.5t-22.5 -73t-4 -64v-717q0 -25 -8 -32t-33 -7h-104 q-20 0 -28.5 7t-8.5 32z" />
<glyph unicode="n" d="M121 39v825q0 59 14.5 91t67.5 59q51 27 109.5 41t109.5 21t88 8t45 1q145 0 225 -35.5t117 -88t43 -110.5t6 -103v-707q0 -14 -4 -25.5t-20 -15.5h-113q-25 0 -35 6t-10 35v688q0 37 -4 80t-26.5 81t-71 63.5t-138.5 25.5q-82 0 -127 -21.5t-65.5 -50t-24.5 -60.5 t-4 -50v-756q0 -29 -10 -35t-33 -6h-100h-9q-15 0 -22 5q-8 7 -8 34z" />
<glyph unicode="o" d="M66 528q0 106 31.5 208t91 178.5t147.5 123.5t199 47q121 0 207.5 -52t143 -133t85 -178t30.5 -185v-13q1 -95 -27 -190q-30 -101 -89.5 -180.5t-147.5 -129t-200 -49.5q-117 0 -205 48.5t-147.5 126t-89 177t-29.5 201.5zM256 557q0 -109 24.5 -192.5t64.5 -143 t92 -90.5t108 -31q57 0 107 31t86 89.5t54 141.5q15 68 16 152q0 18 -1 37q-4 106 -29.5 185t-65.5 131.5t-89.5 78t-100.5 25.5q-61 0 -110.5 -31t-84 -85t-53 -130t-18.5 -168z" />
<glyph unicode="p" d="M121 -442v1237q2 70 5 101.5t19 57.5q16 25 52 48.5t87.5 42t113 29.5t126.5 11q141 0 234.5 -48t146.5 -122.5t74.5 -163.5t21.5 -171q0 -96 -27.5 -203t-86 -196t-148.5 -146.5t-215 -57.5q-90 0 -141 26t-80 46v-493q0 -16 -6 -26.5t-29 -10.5h-102q-23 0 -34 7 t-11 32zM303 168q47 -29 98.5 -48.5t106.5 -19.5q61 0 117.5 29t97.5 86t65.5 139t24.5 191q0 92 -21.5 171t-64.5 135t-104.5 89t-141.5 33q-68 0 -103.5 -18.5t-52 -46t-19.5 -59.5t-3 -61v-620z" />
<glyph unicode="q" d="M68 475q0 100 29.5 209t92 198t161 146t235.5 57q57 0 104 -9t85 -23.5t64.5 -28.5t41.5 -27q47 -41 55 -84t10 -102v-1257q0 -23 -9 -29t-32 -6h-102q-23 0 -32 4t-9 31v546q-23 -18 -50.5 -39.5t-62.5 -41t-79 -32t-99 -12.5q-98 0 -174 42t-127 111t-76.5 159 t-25.5 188zM250 520q0 -80 18.5 -152.5t54 -129t89 -89t123.5 -32.5q18 0 42.5 3t54.5 14t62.5 32.5t67.5 56.5v535q0 45 -2 73.5t-12 53.5q-14 33 -39 50t-51.5 26.5t-49 11.5t-30.5 2q-80 0 -141.5 -38t-102.5 -101.5t-62.5 -145.5t-21.5 -170z" />
<glyph unicode="r" horiz-adv-x="681" d="M123 35v856q0 53 9 77.5t44 45.5q47 29 136 50t190 21q37 0 74.5 -5t68.5 -18t49.5 -35.5t18.5 -59.5q0 -35 -22.5 -61.5t-61.5 -26.5q-29 0 -44.5 13t-41.5 42q-20 20 -44 35.5t-69 15.5t-69.5 -15.5t-37 -37t-15.5 -46t-3 -44.5v-807q-2 -25 -10 -30t-27 -5h-104 q-23 0 -32 5t-9 30z" />
<glyph unicode="s" horiz-adv-x="854" d="M76 207q0 43 26.5 65.5t57.5 22.5q35 0 53 -19.5t29 -33.5q10 -16 26 -47q23 -35 61 -69t115 -34q82 0 120 49t38 107q0 47 -18.5 80.5t-46 58.5t-63.5 43.5t-68 34.5q-63 31 -120 60.5t-99 67.5t-66.5 87t-24.5 121q0 55 19.5 106t59.5 91t101.5 63.5t145.5 23.5 q88 0 148.5 -23.5t98.5 -55t55 -67.5t17 -60q0 -37 -22.5 -57.5t-52.5 -20.5q-41 0 -58.5 21.5t-32.5 47.5q-8 14 -20 34t-30.5 36t-44 28.5t-62.5 12.5q-41 0 -71 -15.5t-48 -38t-26.5 -48t-8.5 -48.5q0 -43 16.5 -73.5t42 -53t55.5 -38t58 -27.5l88 -41q39 -20 83 -45 t81 -60.5t61.5 -87t24.5 -122.5q0 -66 -24.5 -126.5t-71.5 -101.5q-33 -29 -68 -45t-68.5 -23t-63 -9.5t-48.5 -2.5q-102 0 -171 28t-109.5 65.5t-57 76.5t-16.5 62z" />
<glyph unicode="t" horiz-adv-x="555" d="M10 1001q0 41 4 49.5t27 10.5h109v123q0 29 6 41t24 30l94 84q16 14 23.5 18.5t11.5 4.5q16 0 19.5 -16.5t3.5 -34.5v-250h178q18 0 25.5 -4t7.5 -25q0 -41 -4 -51t-27 -10h-180v-666q0 -33 1 -54.5t3 -36.5t7 -28.5t13 -27.5q16 -33 46 -52.5t77 -19.5q6 0 26.5 1 t26.5 1q29 0 35 -15.5t6 -25.5q0 -20 -18 -33.5t-44 -20.5t-52.5 -10t-44.5 -3q-74 0 -128.5 26.5t-86.5 67.5q-35 47 -42 97t-7 97v703h-109q-20 0 -25.5 4t-5.5 26z" />
<glyph unicode="u" horiz-adv-x="1024" d="M109 299v725q0 20 7 28.5t29 8.5h107q23 0 32 -6t9 -33v-680q0 -37 5 -79t26.5 -79t67.5 -61.5t130 -24.5q80 0 122 20.5t62.5 52.5t23.5 71t3 75v701q0 16 4 26.5t21 14.5q2 0 14 1t29.5 1h36h32.5q25 0 34 -8.5t11 -30.5v-768q0 -39 -3 -69.5t-11 -55.5t-25.5 -44 t-46.5 -38q-12 -6 -38.5 -18.5t-68.5 -23.5t-99.5 -20.5t-128.5 -9.5q-125 0 -189.5 26t-101.5 54q-57 47 -75.5 106.5t-18.5 137.5z" />
<glyph unicode="v" horiz-adv-x="894" d="M0 1036q0 18 11.5 21.5t17.5 3.5h125q23 0 28.5 -5t16.5 -28l276 -776l266 780q8 27 25 29h102q8 0 17.5 -2t9.5 -19q0 -4 -1 -9t-7 -23l-359 -977q-10 -23 -15 -27t-24 -4h-79q-12 2 -17.5 8t-13.5 25l-371 975q-8 20 -8 28z" />
<glyph unicode="w" horiz-adv-x="1323" d="M0 1036q0 18 11.5 21.5t19.5 3.5h112q25 0 33 -7t17 -32l225 -756l221 756q2 4 5 15.5t5 15.5q4 8 45 8q12 0 16.5 -5t10.5 -28l233 -770l215 764q6 23 13.5 31t29.5 8q74 0 92.5 -3t18.5 -20q0 -4 -2 -10t-8 -27l-303 -970q-4 -16 -9.5 -23.5t-21.5 -7.5h-86 q-10 0 -16.5 6t-12.5 25l-202 659l-203 -659q-8 -23 -14.5 -27t-26.5 -4h-72q-16 0 -27 31l-311 970q-4 16 -6 22.5t-2 12.5z" />
<glyph unicode="x" horiz-adv-x="854" d="M0 18q0 2 7 14.5t9 16.5l322 481l-287 474q-10 18 -13 24t-3 10q0 14 10 18.5t21 4.5h122q23 0 31 -6t19 -25l211 -340l217 338q16 25 22 27q8 4 44 5t65 1q8 0 19 -2t11 -17q0 -10 -16 -34l-285 -443l314 -512q10 -18 13 -24t3 -13q0 -12 -8 -14t-19 -2h-127 q-27 0 -35 4t-24 27l-223 372l-250 -372q-14 -20 -21.5 -25.5t-33.5 -5.5h-99l-10 5t-6 13z" />
<glyph unicode="y" horiz-adv-x="937" d="M0 -393q0 35 23.5 61.5t64.5 26.5q6 0 21.5 -3t33 -6t34 -6.5t22.5 -3.5q33 0 61.5 14.5t55 51.5t53 99.5t57.5 158.5l-397 1001q-8 18 -10.5 24.5t-2.5 10.5q0 20 14.5 22.5t22.5 2.5h121q25 0 31 -6t16 -31l289 -788l266 788q8 23 14.5 29t18.5 8h100q29 0 29 -23 q0 -4 -1 -10t-9 -27l-418 -1146q-23 -57 -51.5 -119t-71.5 -112t-102.5 -81.5t-141.5 -31.5q-10 0 -33.5 1t-48 10t-43 28.5t-18.5 56.5z" />
<glyph unicode="z" horiz-adv-x="811" d="M43 20q0 6 2 11.5t12 25.5l473 889h-415q-27 0 -31 6q-6 4 -7 30t-1 48q0 23 9 26t30 5h608q10 0 24.5 -3t14.5 -22q0 -4 -2 -9t-12 -28l-467 -886h450q10 0 20.5 -3.5t10.5 -23.5v-59q0 -20 -9.5 -23.5t-25.5 -3.5h-651q-10 0 -21.5 2t-11.5 18z" />
<glyph unicode="{" horiz-adv-x="724" d="M127 705q0 39 2 48t18 11q55 4 84 33.5t43.5 75t16.5 100.5t2 110v199q0 115 9 192.5t63 137.5q35 41 98 69.5t149 28.5q29 0 37 -4t8 -18q0 -35 -4 -42.5t-30 -11.5q-61 -10 -95 -33.5t-50.5 -62.5t-19.5 -93t-3 -122v-133q0 -113 -3 -194t-19.5 -135t-50.5 -86t-95 -48 v-8q61 -16 95 -49t50.5 -88.5t19.5 -135t3 -190.5v-133q0 -70 3 -124t19.5 -93t50 -62.5t95.5 -31.5q20 -4 27 -6.5t7 -18.5q0 -35 -5 -42t-38 -7q-16 0 -45.5 2t-65.5 11t-73 28.5t-65 52.5q-27 31 -41.5 65.5t-21.5 74.5t-8 87t-1 105v198q0 66 -3 122.5t-17.5 98.5 t-44 67.5t-81.5 29.5q-14 2 -17 7t-3 18z" />
<glyph unicode="|" horiz-adv-x="468" d="M174 -512v2048h121v-2048h-121z" />
<glyph unicode="}" horiz-adv-x="724" d="M70 -213q0 16 7 18t27 7q61 8 95 31.5t50.5 62.5t19.5 93t3 124v133q0 111 3.5 190.5t19.5 135t50 88t95 49.5v8q-61 16 -95 48t-50 86t-19.5 135t-3.5 194v133q0 68 -3 122t-19.5 93t-50 62.5t-95.5 33.5q-27 4 -30.5 11.5t-3.5 42.5q0 14 8 18t37 4q41 0 78.5 -6 t72.5 -23q61 -27 95 -67.5t50.5 -92t19.5 -111.5t3 -128v-199q0 -55 2 -110t16.5 -100.5t43 -75t84.5 -33.5q10 -2 15 -4t5 -17q0 -41 -2 -51t-18 -12q-53 -4 -82 -29.5t-43.5 -67.5t-17.5 -98.5t-3 -122.5v-198q0 -57 -1 -104.5t-8 -87.5t-21.5 -74.5t-41.5 -65.5 q-29 -33 -65.5 -52.5t-72.5 -28.5t-66.5 -11t-44.5 -2q-33 0 -38 7t-5 42z" />
<glyph unicode="~" horiz-adv-x="1492" d="M274 580q12 18 34 46.5t52.5 54.5t71.5 44t94 18q59 0 115.5 -21.5t116.5 -49.5q45 -23 75.5 -36t52 -21.5t38 -11.5t32.5 -3q37 0 70 15.5t57.5 36t43 42t28.5 35.5l64 -113q-51 -66 -114 -111.5t-149 -45.5q-47 0 -88 15t-108 48q-45 20 -78 35.5t-58.5 26t-48 14.5 t-47.5 4q-31 0 -52 -7t-41.5 -23.5t-42 -41t-50.5 -61.5z" />
<glyph unicode="&#xa1;" horiz-adv-x="598" d="M127 1339q4 53 43 86t88 33q61 0 94 -42t33 -85q0 -47 -35 -87t-94 -40q-55 0 -94 39t-35 96zM147 45l56 907q2 25 10 30t31 5q43 0 54 -4t13 -33l51 -905q4 -33 -8 -39t-35 -6h-126q-23 0 -35.5 5t-10.5 40z" />
<glyph unicode="&#xa2;" horiz-adv-x="937" d="M66 520q0 111 27.5 209t79.5 174t126 125t166 59v142q0 16 4 20t20 4q33 0 40.5 -3t7.5 -23v-140q86 -2 150.5 -31.5t108.5 -70.5t66.5 -84t22.5 -72q0 -41 -25.5 -59t-52.5 -18q-37 0 -52.5 22.5t-35.5 69.5q-12 27 -26.5 50.5t-35 39.5t-49 28.5t-71.5 18.5v-856 q53 2 92 16.5t67.5 37t48 51t35.5 57.5q25 53 34 66.5t28 13.5q10 0 25.5 -10.5t15.5 -39.5q0 -39 -26 -98t-62 -106q-35 -47 -72 -74t-72 -40t-64.5 -17.5t-49.5 -6.5v-133q0 -23 -8.5 -25.5t-39.5 -2.5q-18 0 -21 7t-3 23v131q-98 12 -173 58.5t-125 119t-75.5 167 t-25.5 200.5zM223 590q0 -59 12.5 -131t36.5 -131q25 -57 52.5 -92t54.5 -55.5t49.5 -30t36.5 -13.5v842q-23 -6 -54.5 -17.5t-70.5 -46.5q-66 -61 -91.5 -147t-25.5 -178z" />
<glyph unicode="&#xa3;" horiz-adv-x="1193" d="M47 215q0 61 20.5 115.5t58.5 94.5t90 63.5t118 23.5q55 0 89 -12.5t62 -26.5q-4 72 -25.5 141.5t-47.5 135.5h-242q-27 2 -31 10t-4 47q0 23 8.5 27t28.5 4h199q-10 16 -23.5 45.5t-28 67.5t-23.5 83t-9 94q0 80 28.5 143.5t81 109.5t125 71t158.5 25q131 0 210 -44 t122 -101.5t56 -110t13 -68.5q0 -53 -28.5 -73.5t-57.5 -20.5q-53 0 -70.5 37t-29.5 86q-20 86 -75.5 137t-141.5 51q-94 0 -146.5 -60.5t-52.5 -158.5q0 -31 2 -55.5t9.5 -57t19.5 -80t31 -120.5h313q20 0 28.5 -4.5t8.5 -26.5q0 -39 -5 -47t-34 -10h-293 q20 -66 29.5 -127.5t9.5 -130.5q0 -27 -1 -45.5t-3 -34.5q12 -10 21.5 -16.5t18.5 -14.5t20.5 -18.5t29.5 -28.5q35 -35 72 -69t73.5 -60.5t71.5 -44t70 -17.5q47 0 70.5 21.5t39.5 40.5q12 16 23.5 26.5t28.5 10.5q4 0 22.5 -6.5t18.5 -38.5q0 -33 -14.5 -73t-44.5 -74 t-74 -57.5t-103 -23.5q-80 0 -139.5 37t-98.5 74q-8 6 -28.5 27.5t-42 45t-42 45t-28.5 29.5q-8 -29 -18.5 -57.5t-30.5 -63.5q-37 -59 -95.5 -98t-135.5 -39q-55 0 -98.5 20.5t-73 55.5t-45 79t-15.5 91zM166 248q0 -37 12 -64.5t32.5 -46t44.5 -27t46 -8.5 q76 0 116.5 61.5t63.5 145.5q-37 35 -75.5 60.5t-96.5 25.5q-72 0 -107.5 -44t-35.5 -103z" />
<glyph unicode="&#xa4;" horiz-adv-x="1366" d="M119 223l151 150q-23 33 -42 64.5t-35.5 69.5t-25.5 84t-9 105q0 63 12 114.5t29.5 90.5t37 67.5t33.5 47.5l-149 149l92 92l149 -149q27 18 58 38.5t68.5 37t87 27t110.5 10.5t109.5 -10.5t87.5 -27t68.5 -36t54.5 -37.5l149 150l94 -95l-151 -149q16 -23 35.5 -50.5 t36 -66.5t27.5 -89t11 -118q0 -66 -12 -116t-29.5 -88.5t-37 -67.5t-33.5 -47l151 -154l-94 -92l-149 154q-31 -20 -62 -41t-67.5 -36.5t-84 -24.5t-108.5 -9q-59 0 -105.5 9t-83 24.5t-68.5 35t-63 42.5l-151 -150zM283 694q0 -84 30.5 -157.5t84 -128t128 -86t160.5 -31.5 q82 0 154.5 29.5t126 84t85 128t31.5 163.5q0 92 -32.5 167t-88 127t-127 81t-147.5 29q-80 0 -153.5 -29t-130 -81t-89 -127t-32.5 -169z" />
<glyph unicode="&#xa5;" horiz-adv-x="1110" d="M0 1423q0 14 9 18.5t22 4.5h147q23 0 31 -4t18 -25l353 -604l350 600q14 20 19 25.5t20 7.5h114q16 0 20.5 -8t4.5 -15q0 -6 -2 -12t-10 -20l-326 -543h193q20 0 27 -5t7 -26q0 -53 -4 -65.5t-28 -12.5h-260l-52 -88v-67h310q20 0 27 -5.5t7 -25.5q0 -53 -4 -65.5 t-28 -12.5h-312v-440q0 -27 -9 -31t-32 -4h-133q-20 0 -26.5 6t-6.5 29v440h-319q-20 0 -27.5 7t-7.5 30q0 47 4 59.5t31 12.5h319v78l-45 77h-274q-20 0 -27.5 7.5t-7.5 29.5q0 47 4 59.5t31 12.5h209l-322 543q-10 16 -12 22t-2 10z" />
<glyph unicode="&#xa6;" horiz-adv-x="468" d="M174 358h123v-716h-123v716zM174 666v716h123v-716h-123z" />
<glyph unicode="&#xa7;" horiz-adv-x="937" d="M63 629q0 63 24 113.5t56.5 89t67.5 64.5t57 42q-16 18 -36.5 40.5t-38 51.5t-28.5 67t-11 85q0 61 20.5 114.5t61 93.5t100 63.5t139.5 23.5q88 0 151.5 -26t104.5 -63.5t61.5 -80.5t20.5 -78q0 -53 -28.5 -71.5t-51.5 -18.5q-41 0 -61.5 28.5t-30.5 53.5 q-10 20 -22.5 46.5t-32 48t-48 37t-67.5 15.5q-76 0 -114 -50t-38 -110q0 -55 20.5 -93t57.5 -67.5t86 -53t105 -48.5q39 -18 89 -42.5t94 -61.5t73.5 -89.5t29.5 -123.5q0 -96 -54 -171t-134 -141q18 -16 45 -38.5t50.5 -55.5t40 -78t16.5 -104q0 -63 -21.5 -122.5 t-64.5 -104.5t-106.5 -73t-145.5 -28q-98 0 -171 31t-120 76t-69.5 95t-22.5 89q0 49 28.5 73.5t61.5 24.5q47 0 67.5 -31.5t49.5 -103.5q20 -49 48.5 -76.5t57.5 -40t50.5 -14.5t27.5 -2q27 0 54.5 9.5t51 30t38 52t14.5 76.5q0 53 -20.5 92t-53.5 67.5t-74 51.5t-84 45 l-92 41q-39 18 -87 44t-91 64.5t-72 93t-29 128.5zM219 670q0 -45 17.5 -79t45 -58.5t60.5 -43t61 -32.5q10 -4 38 -16.5t59.5 -27t59.5 -26.5t40 -18q82 70 103.5 126t21.5 91q0 45 -20.5 79.5t-54.5 60.5t-76 46.5t-87 38.5q-29 12 -47 20.5t-33.5 16.5l-31 16t-35.5 21 q-63 -53 -92 -107.5t-29 -107.5z" />
<glyph unicode="&#xa8;" horiz-adv-x="512" d="M-37 1358q0 53 35 82.5t80 29.5q47 0 78.5 -30.5t31.5 -79.5t-30.5 -82t-79.5 -33q-47 0 -81 32t-34 81zM326 1358q0 53 33.5 82.5t78.5 29.5q47 0 80 -30.5t33 -79.5t-32 -82t-81 -33q-47 0 -79.5 32t-32.5 81z" />
<glyph unicode="&#xa9;" horiz-adv-x="1705" d="M125 723q0 154 57.5 287t155.5 231t231 154.5t285 56.5q158 0 291 -58.5t230.5 -157.5t151.5 -233t54 -284q0 -152 -56.5 -284t-154.5 -230.5t-231 -154.5t-287 -56q-145 0 -276.5 54t-231.5 150.5t-159.5 230.5t-59.5 294zM190 725q0 -143 53.5 -265t143.5 -211 t211 -139.5t256 -50.5q143 0 264 53.5t209 143.5t138.5 211t50.5 254q0 137 -50.5 259t-138.5 212t-209 142t-262 52t-263 -53t-211 -143t-140.5 -210t-51.5 -255zM395 721q0 106 38 195.5t102.5 151.5t149.5 97t181 35q82 0 144.5 -21.5t108.5 -51t78 -61.5t50 -54l-86 -80 q-18 23 -44.5 49.5t-61.5 50t-80 38.5t-103 15q-74 0 -138 -25.5t-113.5 -73.5t-78 -114.5t-28.5 -146.5q0 -74 26.5 -138.5t75 -112.5t113 -76.5t141.5 -28.5q61 0 107.5 15t81.5 37.5t59.5 48.5t42.5 48l86 -72q-25 -35 -49 -59q-53 -53 -140 -93t-198 -40q-98 0 -182 36 t-147.5 98.5t-99.5 147.5t-36 185z" />
<glyph unicode="&#xaa;" horiz-adv-x="555" d="M31 944q0 55 25.5 93t71.5 65.5t109.5 49.5t139.5 44q0 80 -2 106.5t-10 45.5q-23 43 -80 43q-27 0 -45.5 -9.5t-30.5 -22.5t-18.5 -26.5t-10.5 -21.5q-6 -18 -17 -38t-42 -20q-16 0 -34.5 12.5t-18.5 45.5q0 29 16 56.5t47 49t74 34.5t96 13q72 0 111 -23.5t57 -56 t21.5 -68.5t3.5 -59v-337q-2 -43 -11.5 -70t-46.5 -47q-33 -18 -83 -26.5t-97 -8.5q-12 0 -49 3t-76 19.5t-69.5 52.5t-30.5 101zM154 961q0 -10 3 -30t16 -39.5t38 -33.5t68 -14q37 0 56 9t28.5 22.5t11.5 29t2 27.5v196q-53 -16 -94 -31.5t-70 -34t-44 -42t-15 -59.5z" />
<glyph unicode="&#xab;" horiz-adv-x="768" d="M55 600q0 12 5.5 19.5t27.5 27.5q27 23 75 73t116 148q35 49 45 61.5t24 12.5q10 0 22.5 -9t12.5 -26q0 -16 -10 -33l-109 -202q-10 -18 -18 -37t-8 -37t9 -38.5t19 -41.5l109 -205q10 -16 10 -34q0 -35 -33 -35q-12 0 -22.5 10t-20.5 25q-27 41 -49 74.5t-46 63 t-48.5 58.5t-54.5 57q-39 35 -47.5 45.5t-8.5 22.5zM362 598q0 14 6.5 21.5t28.5 27.5q23 23 73 74t116 147q35 49 46 61.5t23 12.5q10 0 22.5 -9t12.5 -26q0 -16 -10 -33l-109 -202q-10 -18 -18 -37t-8 -37t9 -38.5t19 -41.5l109 -205q4 -10 8 -17t4 -17q0 -16 -10 -25.5 t-22 -9.5q-14 0 -24.5 11t-21.5 24q-55 82 -97 140t-101 113q-39 33 -47.5 44.5t-8.5 21.5z" />
<glyph unicode="&#xac;" horiz-adv-x="1366" d="M0 537v120h1243h123v-657h-123v537h-1243z" />
<glyph unicode="&#xad;" horiz-adv-x="641" d="M117 535v51.5t2 36.5q4 14 13 17t20 3h333q20 0 28.5 -5t8.5 -26v-92q-2 -23 -33 -22h-337q-20 0 -27.5 7t-7.5 30z" />
<glyph unicode="&#xae;" horiz-adv-x="1705" d="M125 723q0 158 58.5 291t158.5 230t231.5 152.5t278.5 55.5q158 0 292 -58.5t232.5 -158.5t152.5 -233t54 -283q0 -152 -57.5 -284t-155.5 -230.5t-231 -154.5t-287 -56q-141 0 -273.5 53t-232.5 149.5t-160.5 230.5t-60.5 296zM190 723q0 -139 52.5 -261t142.5 -211 t211 -140.5t256 -51.5q141 0 262 51.5t210 141.5t141.5 210t52.5 259q0 137 -49.5 258t-138.5 211t-211 143t-263 53t-262 -52t-211 -142t-141.5 -211t-51.5 -258zM561 270v912h281q84 0 127 -4t84 -19q70 -27 104.5 -83t34.5 -122q0 -96 -59.5 -151t-143.5 -68 q72 -27 101.5 -72t44.5 -128q8 -49 13 -85t12 -66t16.5 -56.5t25.5 -57.5h-153q-6 14 -12.5 29.5t-12.5 37t-12 53.5t-13 79q-10 80 -25.5 125t-48 67.5t-87 27.5t-144.5 5v-424h-133zM696 801h152q25 0 59.5 2t68.5 15t57.5 42t23.5 84q0 63 -43 100q-29 27 -71 31t-124 4 h-123v-278z" />
<glyph unicode="&#xaf;" horiz-adv-x="512" d="M-23 1346.5v24.5v15q0 23 10.5 28t26.5 5h480q25 0 34 -4t9 -33v-69q-2 -23 -37 -23h-480q-20 0 -28 2t-12 19q0 2 -1.5 12t-1.5 23.5z" />
<glyph unicode="&#xb0;" horiz-adv-x="724" d="M61 1231q0 63 24 117.5t64.5 95.5t96 64.5t116.5 23.5q63 0 118 -23.5t95.5 -64.5t64.5 -96.5t24 -116.5t-24 -116.5t-64.5 -96.5t-95 -64.5t-118.5 -23.5q-61 0 -116.5 23.5t-96 64.5t-64.5 96t-24 117zM184 1231q0 -74 51.5 -126t126.5 -52q74 0 126.5 52t52.5 126 t-52.5 126t-126.5 52q-76 0 -127 -52t-51 -126z" />
<glyph unicode="&#xb1;" horiz-adv-x="1024" d="M63 0v121h898v-121h-898zM63 700v121h392v389h120v-389h386v-121h-386v-389h-120v389h-392z" />
<glyph unicode="&#xb2;" horiz-adv-x="681" d="M63 565q0 8 4.5 14.5t10.5 16.5l268 348q47 61 83 126t36 132q0 66 -38 112t-101 46q-6 0 -25.5 -2t-43.5 -15.5t-46.5 -41t-34.5 -78.5q-6 -25 -14 -43.5t-31 -18.5q-10 0 -25.5 6.5t-15.5 44.5q0 43 16.5 88.5t49 82t81 60t111.5 23.5q55 0 99.5 -18t75 -51t48 -75 t17.5 -89q0 -43 -12.5 -82t-31 -74t-41 -65.5t-42.5 -57.5l-236 -299h342q18 0 25 -6q4 -4 5 -29.5t1 -46.5q0 -20 -6 -25t-25 -5h-473q-12 0 -21.5 4t-9.5 18z" />
<glyph unicode="&#xb3;" horiz-adv-x="681" d="M55 707q0 29 17.5 45t40.5 16t34 -14.5t19 -26.5q10 -18 22.5 -39.5t31 -39t44 -30t62.5 -12.5q74 0 113.5 53.5t39.5 114.5q0 92 -62.5 143.5t-152.5 73.5q-16 4 -27.5 9.5t-11.5 21.5q0 14 8.5 19.5t14.5 9.5q27 10 59.5 23t60 34.5t46 52.5t18.5 76q0 43 -30.5 86 t-96.5 43q-37 0 -61.5 -12.5t-41 -29.5t-24.5 -36.5t-14 -32.5q-8 -23 -16.5 -37t-26.5 -14q-6 0 -21.5 6.5t-15.5 38.5q0 33 16.5 72t48 70.5t77.5 53t106 21.5q94 0 157.5 -56t63.5 -144q0 -66 -37 -117t-100 -86q92 -41 138 -109.5t46 -150.5q0 -41 -14.5 -89t-47 -90 t-88 -71t-137.5 -29q-66 0 -113.5 19.5t-79.5 48.5t-48.5 59.5t-16.5 55.5z" />
<glyph unicode="&#xb4;" horiz-adv-x="512" d="M100 1219q0 8 3 19t18 26l180 182q10 10 23.5 20.5t29.5 10.5q25 0 40.5 -22.5t15.5 -51.5q0 -33 -12.5 -49.5t-24.5 -26.5l-199 -141q-8 -4 -16 -9.5t-19 -5.5q-12 0 -25.5 11.5t-13.5 36.5z" />
<glyph unicode="&#xb6;" horiz-adv-x="1366" d="M184 1049q0 51 16.5 118.5t63.5 126.5q41 53 90 84t98.5 45.5t96.5 18.5t86 4h452v-90h-67v-1698h-94v1698h-322v-1698h-94v1018q-51 10 -110.5 27.5t-118.5 82.5q-51 53 -74 125t-23 138z" />
<glyph unicode="&#xb7;" horiz-adv-x="512" d="M127 561q0 33 12.5 56.5t30.5 39t40.5 22.5t43.5 7q53 0 91 -37t36 -94q-2 -53 -40 -87t-87 -34t-88 34t-39 93z" />
<glyph unicode="&#xb8;" horiz-adv-x="512" d="M53 -381q0 6 6.5 18.5t26.5 12.5q4 0 11 -2t30 -8q16 -4 36.5 -7.5t53.5 -3.5q47 0 83 21.5t36 68.5q0 25 -12.5 39.5t-28.5 21.5t-33.5 10t-28.5 3q-23 2 -35 7t-8 34l21 166h94l-33 -141q47 2 82 -9.5t57.5 -32t34 -46t11.5 -52.5q0 -33 -15.5 -63.5t-44 -55t-69.5 -39 t-92 -14.5q-20 0 -51 4.5t-61 13.5t-50.5 22.5t-20.5 31.5z" />
<glyph unicode="&#xb9;" horiz-adv-x="681" d="M51 1233q0 23 14.5 29t49.5 16q49 14 86 29.5t64.5 32t49 36t43.5 41.5q20 23 29.5 31t24.5 8q16 0 23 -10t7 -27v-850q0 -18 -7 -22t-21 -4q-59 0 -73.5 3t-14.5 23v701q-88 -41 -157 -56.5t-79 -15.5q-29 0 -34 15.5t-5 19.5z" />
<glyph unicode="&#xba;" horiz-adv-x="681" d="M49 1114q0 70 20.5 133.5t58.5 111.5t92 76.5t122 28.5q76 0 131 -32.5t90 -84t52.5 -112t19.5 -115.5q2 -66 -16.5 -128t-55.5 -112.5t-92 -81t-127 -30.5q-74 0 -129 29.5t-92 79t-55.5 111t-18.5 126.5zM174 1133q0 -66 14.5 -118t39 -88t56 -55.5t64.5 -19.5 q72 0 119 72.5t41 203.5t-58.5 194.5t-113.5 63.5q-74 0 -118 -70.5t-44 -182.5z" />
<glyph unicode="&#xbb;" horiz-adv-x="768" d="M74 907q0 16 10 25.5t22 9.5q14 0 24.5 -11t21.5 -24q53 -84 96 -140t102 -112q37 -35 46.5 -46t9.5 -21q0 -14 -6.5 -21.5t-28.5 -27.5q-25 -23 -74 -74t-115 -148q-35 -49 -46 -61t-23 -12t-23.5 9t-11.5 26q0 16 10 32l109 203q10 18 18 36.5t8 37.5q0 18 -10 38.5 t-20 41.5l-107 204q-4 10 -8 17.5t-4 17.5zM381 907q0 16 10 25.5t23 9.5q14 0 24.5 -10t20.5 -25q53 -80 95 -137t103 -115q39 -35 47.5 -45t8.5 -24q0 -12 -6.5 -19.5t-28.5 -27.5q-25 -23 -73 -73t-116 -149q-35 -49 -46 -61t-23 -12q-10 0 -22.5 9t-12.5 26q0 16 10 32 l109 203q10 18 18 36.5t8 37.5q0 18 -9 38.5t-19 41.5l-109 204q-4 8 -8 16.5t-4 18.5z" />
<glyph unicode="&#xbc;" horiz-adv-x="1622" d="M51 1233q0 23 14.5 30t49.5 17q49 14 86 28.5t64.5 32t49 36t43.5 40.5q20 23 29.5 31t24.5 8q16 0 23 -10t7 -27v-850q0 -18 -7 -22t-21 -4q-59 0 -73.5 3t-14.5 23v701q-88 -41 -157 -55.5t-79 -14.5q-29 0 -34 15.5t-5 17.5zM373 18q0 6 2 12.5t10 22.5l723 1356 q12 23 20.5 30t28.5 7q35 0 44 -2t9 -14q0 -6 -3 -12.5t-13 -26.5l-717 -1354q-14 -27 -21 -32t-30 -5q-31 0 -42 2t-11 16zM979 236q0 6 3 12t13 24l348 613q4 10 13.5 19t29.5 9q33 0 38.5 -18t5.5 -35v-573h86q16 -2 16 -29q0 -29 -1 -35t-5 -10t-38 -4h-58v-189 q0 -16 -3.5 -20t-13.5 -6h-74q-16 0 -20 7t-4 19v189h-303q-8 0 -20.5 3t-12.5 24zM1092 287h223v420z" />
<glyph unicode="&#xbd;" horiz-adv-x="1622" d="M51 1233q0 23 14.5 30t49.5 17q49 12 86 27.5t64.5 32t49 36t43.5 41.5q20 23 29.5 31t24.5 8q16 0 23 -10t7 -27v-852q0 -16 -7 -20t-21 -4q-59 0 -73.5 3t-14.5 21v703q-88 -41 -157 -56.5t-79 -15.5q-29 0 -34 15.5t-5 19.5zM375 18q0 6 2 12.5t10 22.5l723 1356 q10 23 18.5 30t30.5 7q35 0 43 -2t8 -14q0 -8 -2 -13.5t-12 -25.5l-719 -1356q-14 -27 -21 -31t-30 -4q-31 0 -41 2t-10 16zM1001 23q0 8 4.5 14t10.5 16l268 348q47 61 83 126t36 132q0 66 -38 112t-103 46q-6 0 -25.5 -2t-42.5 -15.5t-45.5 -41t-34.5 -78.5 q-6 -25 -14 -43.5t-33 -18.5q-8 0 -23.5 6.5t-15.5 45.5q0 43 16.5 88t49 82t81 60.5t111.5 23.5q55 0 99.5 -18.5t75 -51.5t48 -75t17.5 -89q0 -43 -12.5 -82t-31 -73.5t-41 -65.5t-42.5 -57l-236 -299h342q18 0 25 -7q4 -4 5 -29.5t1 -45.5t-6 -25.5t-25 -5.5h-473 q-12 0 -21.5 4t-9.5 19z" />
<glyph unicode="&#xbe;" horiz-adv-x="1622" d="M55 707q0 29 17.5 45t40.5 16t34 -14.5t19 -26.5q10 -18 22.5 -39.5t31 -39t44 -30t62.5 -12.5q74 0 113.5 53.5t39.5 114.5q0 92 -62.5 143.5t-152.5 73.5q-16 4 -27.5 9.5t-11.5 21.5q0 14 8.5 19.5t14.5 9.5q27 10 59.5 23t60 34.5t46 52.5t18.5 76q0 43 -30.5 86 t-96.5 43q-37 0 -61.5 -12.5t-41 -29.5t-24.5 -36.5t-14 -32.5q-8 -23 -16.5 -37t-26.5 -14q-6 0 -21.5 6.5t-15.5 38.5q0 33 16.5 72t48 70.5t77.5 53t106 21.5q94 0 157.5 -56t63.5 -144q0 -66 -37 -117t-100 -86q92 -41 138 -109.5t46 -150.5q0 -41 -14.5 -89t-47 -90 t-88 -71t-137.5 -29q-66 0 -113.5 19.5t-79.5 48.5t-48.5 59.5t-16.5 55.5zM418 18q0 6 2 11.5t10 23.5l723 1356q10 23 19.5 30t29.5 7q29 0 41 -2t12 -14q0 -6 -3 -12.5t-13 -26.5l-719 -1354q-14 -27 -21 -32t-28 -5q-35 0 -44 2t-9 16zM979 236q0 6 3 12t13 24l348 613 q4 10 13.5 19t29.5 9q33 0 38.5 -18t5.5 -35v-573h86q16 -2 16 -29q0 -29 -1 -35t-5 -10t-38 -4h-58v-189q0 -16 -3.5 -20t-13.5 -6h-74q-16 0 -20 7t-4 19v189h-303q-8 0 -20.5 3t-12.5 24zM1092 287h223v420z" />
<glyph unicode="&#xbf;" horiz-adv-x="854" d="M72 254q0 47 13 86t34.5 69.5t47.5 56.5t50 48q49 47 81 85t49.5 81t23.5 97t8 138q0 43 5 56.5t36 13.5q37 0 46 -5t13 -34l25 -301q0 -18 -1 -30.5t-6 -22.5t-15.5 -19.5t-28.5 -23.5q-39 -27 -74 -53.5t-61.5 -58t-43 -69.5t-16.5 -89q0 -31 9 -65t30.5 -63.5 t55.5 -48t83 -18.5q47 0 78 17.5t49.5 41t27.5 49t13 41.5q10 39 27.5 72t64.5 33q25 0 56.5 -21.5t31.5 -76.5q0 -47 -22.5 -95.5t-67.5 -87.5t-113.5 -63.5t-160.5 -24.5q-86 0 -151.5 24.5t-109.5 64.5t-65.5 91.5t-21.5 104.5zM301 1339q4 53 42 86t87 33q59 0 92 -42 t33 -85q0 -47 -34 -87t-93 -40q-55 0 -93 40t-34 95z" />
<glyph unicode="&#xc0;" horiz-adv-x="1236" d="M0 18q0 2 5 15.5t5 17.5l531 1364q8 20 15 25.5t24 5.5h88q10 -2 15 -6t13 -21l533 -1368q4 -10 6 -17t2 -16q0 -14 -8 -16t-21 -2h-141q-27 0 -34 4t-17 27l-203 538h-440l-199 -536q-10 -25 -17 -29t-28 -4h-96q-10 0 -21.5 2t-11.5 16zM322 1812q0 37 20 58.5t43 21.5 q18 0 30.5 -9t22.5 -19l193 -199q25 -25 24 -53q0 -23 -11 -37t-28 -14q-10 0 -19 5t-17 11l-218 154q-14 12 -27 29.5t-13 51.5zM416 686h354l-176 490z" />
<glyph unicode="&#xc1;" horiz-adv-x="1236" d="M0 18q0 2 5 15.5t5 17.5l531 1364q8 20 15 25.5t24 5.5h88q10 -2 15 -6t13 -21l533 -1368q4 -10 6 -17t2 -16q0 -14 -8 -16t-21 -2h-141q-27 0 -34 4t-17 27l-203 538h-440l-199 -536q-10 -25 -17 -29t-28 -4h-96q-10 0 -21.5 2t-11.5 16zM416 686h354l-176 490z M580 1612q0 29 24 53l193 199q10 10 22 19t31 9q23 0 43 -21.5t20 -58.5q0 -35 -13 -52t-28 -29l-217 -154q-8 -6 -17 -11t-20 -5q-16 0 -27 14t-11 37z" />
<glyph unicode="&#xc2;" horiz-adv-x="1236" d="M0 18q0 2 5 15.5t5 17.5l531 1364q8 20 15 25.5t24 5.5h88q10 -2 15 -6t13 -21l533 -1368q4 -10 6 -17t2 -16q0 -14 -8 -16t-21 -2h-141q-27 0 -34 4t-17 27l-203 538h-440l-199 -536q-10 -25 -17 -29t-28 -4h-96q-10 0 -21.5 2t-11.5 16zM317 1591q0 16 9.5 27.5 t25.5 28.5q43 39 68.5 61.5t44 39.5t34 34.5t38.5 42.5q27 27 40 39t29 12q14 0 24.5 -8t31.5 -31q16 -18 61 -63t123 -107q31 -23 44 -37t13 -35q0 -18 -9 -27t-20 -9q-8 0 -16 5t-18 9l-170 113q-18 10 -32.5 19t-29.5 9q-12 0 -26.5 -8t-34.5 -25l-168 -108 q-6 -6 -15.5 -12.5t-19.5 -6.5t-18.5 11.5t-8.5 25.5zM416 686h354l-176 490z" />
<glyph unicode="&#xc3;" horiz-adv-x="1236" d="M0 18q0 2 5 15.5t5 17.5l531 1364q8 20 15 25.5t24 5.5h88q10 -2 15 -6t13 -21l533 -1368q4 -10 6 -17t2 -16q0 -14 -8 -16t-21 -2h-141q-27 0 -34 4t-17 27l-203 538h-440l-199 -536q-10 -25 -17 -29t-28 -4h-96q-10 0 -21.5 2t-11.5 16zM287 1622q0 16 10 48t32.5 62.5 t61.5 54t94 23.5q47 0 79 -16t67 -41q41 -29 69.5 -43t65.5 -14q39 0 56.5 14t33.5 33q27 37 35 46t20 9q16 0 24.5 -11t8.5 -28q0 -20 -9 -53t-31.5 -63.5t-59.5 -53t-92 -22.5q-49 0 -82 16t-76 45q-47 33 -69.5 44t-53.5 11q-37 0 -54.5 -12t-33.5 -29q-31 -43 -40 -53 t-24 -10q-33 0 -32 43zM416 686h354l-176 490z" />
<glyph unicode="&#xc4;" horiz-adv-x="1236" d="M0 18q0 2 5 15.5t5 17.5l531 1364q8 20 15 25.5t24 5.5h88q10 -2 15 -6t13 -21l533 -1368q4 -10 6 -17t2 -16q0 -14 -8 -16t-21 -2h-141q-27 0 -34 4t-17 27l-203 538h-440l-199 -536q-10 -25 -17 -29t-28 -4h-96q-10 0 -21.5 2t-11.5 16zM309 1718q0 55 38 86t83 31 q41 0 78 -29t37 -84q0 -41 -28 -79.5t-89 -38.5q-45 0 -82 28.5t-37 85.5zM416 686h354l-176 490zM684 1718q0 55 38 86t83 31q41 0 78 -29t37 -84q0 -41 -29 -79.5t-88 -38.5q-45 0 -82 28.5t-37 85.5z" />
<glyph unicode="&#xc5;" horiz-adv-x="1236" d="M0 18q0 2 5 15.5t5 17.5l531 1364q8 20 15 25.5t24 5.5h88q10 -2 15 -6t13 -21l533 -1368q4 -10 6 -17t2 -16q0 -14 -8 -16t-21 -2h-141q-27 0 -34 4t-17 27l-203 538h-440l-199 -536q-10 -25 -17 -29t-28 -4h-96q-10 0 -21.5 2t-11.5 16zM416 686h354l-176 490z M444 1714q0 70 50.5 121t126.5 51q74 0 118.5 -49t48.5 -115q4 -74 -43 -128t-124 -54q-78 0 -127.5 51t-49.5 123zM532 1714q0 -37 24 -61.5t60 -24.5q41 0 63.5 26.5t20.5 61.5q-2 29 -21.5 55.5t-60.5 26.5q-37 0 -61.5 -23.5t-24.5 -60.5z" />
<glyph unicode="&#xc6;" horiz-adv-x="1662" d="M0 27q0 4 1 10t11 26l582 1342q12 27 21.5 34t37.5 7h752q23 0 28 -5t5 -20q2 -6 2 -33.5v-48.5q0 -23 -6.5 -27.5t-28.5 -4.5h-571l102 -484h469q20 0 25.5 -4t7.5 -14q0 -4 1 -15.5t1 -24.5v-25.5v-16.5q0 -18 -9.5 -22.5t-25.5 -4.5h-444l112 -563h492q23 0 27.5 -7 t4.5 -28q0 -68 -5 -83t-31 -15h-625q-23 0 -33 4t-16 27l-101 522h-395l-215 -520q-10 -23 -18 -28t-27 -5h-96q-10 0 -22.5 4t-12.5 23zM440 670h324l-105 542z" />
<glyph unicode="&#xc7;" horiz-adv-x="1236" d="M72 733q0 131 35.5 263t115.5 238.5t205 174.5t303 68q113 0 202 -30t148.5 -74t91 -94t31.5 -89q0 -43 -27.5 -68.5t-66.5 -25.5q-41 0 -61.5 22.5t-36.5 48.5q-10 16 -33 47t-58.5 62t-87 53.5t-120.5 22.5q-90 0 -168 -40t-135.5 -115t-91 -181.5t-33.5 -237.5 q0 -141 36.5 -263t102 -210t157 -138t199.5 -50q82 0 151.5 24.5t137.5 69.5q27 16 40 24.5t30 8.5q16 0 30.5 -13.5t14.5 -35.5q0 -25 -29 -63t-86 -73.5t-142 -62.5t-198 -27l-24 -108q47 2 81.5 -9.5t57 -32t34 -47t11.5 -51.5q0 -68 -59.5 -121t-161.5 -53 q-20 0 -51 4.5t-61 13.5t-50.5 22.5t-20.5 31.5q0 6 5.5 18.5t25.5 12.5q4 0 11.5 -2t29.5 -8q16 -4 37.5 -7.5t54.5 -3.5q47 0 83 21.5t36 68.5q0 25 -11.5 39.5t-27.5 21.5t-34.5 10t-32.5 3q-23 2 -33.5 9.5t-5.5 31.5l16 141q-164 25 -272.5 104t-174 187.5t-93 232.5 t-27.5 234z" />
<glyph unicode="&#xc8;" horiz-adv-x="980" d="M135 37v1360q0 27 7.5 38t33.5 11h713q16 0 27.5 -4t11.5 -27v-47t-2 -31q-2 -23 -37 -22h-553v-494h467q16 0 27.5 -4t11.5 -26v-48t-2 -32q-4 -12 -12.5 -15.5t-24.5 -3.5h-467v-561h553q20 0 29.5 -4t9.5 -29v-65q0 -23 -10.5 -28t-28.5 -5h-713q-23 0 -32 5t-9 32z M215 1812q0 37 20.5 58.5t43.5 21.5q18 0 30.5 -9t22.5 -19l192 -199q25 -25 25 -53q0 -23 -11.5 -37t-27.5 -14q-10 0 -19.5 5t-17.5 11l-217 154q-14 12 -27.5 29.5t-13.5 51.5z" />
<glyph unicode="&#xc9;" horiz-adv-x="980" d="M135 37v1360q0 27 7.5 38t33.5 11h713q16 0 27.5 -4t11.5 -27v-47t-2 -31q-2 -23 -37 -22h-553v-494h467q16 0 27.5 -4t11.5 -26v-48t-2 -32q-4 -12 -12.5 -15.5t-24.5 -3.5h-467v-561h553q20 0 29.5 -4t9.5 -29v-65q0 -23 -10.5 -28t-28.5 -5h-713q-23 0 -32 5t-9 32z M473 1612q0 29 25 53l192 199q10 10 22.5 19t30.5 9q23 0 43.5 -21.5t20.5 -58.5q0 -35 -13.5 -52t-27.5 -29l-217 -154q-8 -6 -17.5 -11t-19.5 -5q-16 0 -27.5 14t-11.5 37z" />
<glyph unicode="&#xca;" horiz-adv-x="980" d="M135 37v1360q0 27 7.5 38t33.5 11h713q16 0 27.5 -4t11.5 -27v-47t-2 -31q-2 -23 -37 -22h-553v-494h467q16 0 27.5 -4t11.5 -26v-48t-2 -32q-4 -12 -12.5 -15.5t-24.5 -3.5h-467v-561h553q20 0 29.5 -4t9.5 -29v-65q0 -23 -10.5 -28t-28.5 -5h-713q-23 0 -32 5t-9 32z M211 1591q0 16 9 27.5t26 28.5q43 39 68.5 61.5t44 39.5t34 34.5t37.5 42.5q27 27 40 39t30 12q14 0 24.5 -8t30.5 -31q16 -18 61.5 -63t122.5 -107q31 -23 44.5 -37t13.5 -35q0 -18 -9.5 -27t-19.5 -9q-8 0 -16.5 5t-18.5 9l-170 113q-18 10 -32.5 19t-28.5 9 q-12 0 -26.5 -8t-35.5 -25l-168 -108q-6 -6 -15 -12.5t-19 -6.5t-18.5 11.5t-8.5 25.5z" />
<glyph unicode="&#xcb;" horiz-adv-x="980" d="M135 37v1360q0 27 7.5 38t33.5 11h713q16 0 27.5 -4t11.5 -27v-47t-2 -31q-2 -23 -37 -22h-553v-494h467q16 0 27.5 -4t11.5 -26v-48t-2 -32q-4 -12 -12.5 -15.5t-24.5 -3.5h-467v-561h553q20 0 29.5 -4t9.5 -29v-65q0 -23 -10.5 -28t-28.5 -5h-713q-23 0 -32 5t-9 32z M205 1718q0 55 38 86t83 31q41 0 77.5 -29t36.5 -84q0 -41 -27.5 -79.5t-88.5 -38.5q-45 0 -82 28.5t-37 85.5zM580 1718q0 55 37.5 86t82.5 31q41 0 78 -29t37 -84q0 -41 -28.5 -79.5t-88.5 -38.5q-45 0 -81.5 28.5t-36.5 85.5z" />
<glyph unicode="&#xcc;" horiz-adv-x="468" d="M-61 1812q0 37 20.5 58.5t42.5 21.5q18 0 30.5 -9t22.5 -19l193 -199q25 -25 24 -53q0 -23 -11 -37t-28 -14q-10 0 -19 5t-17 11l-217 154q-14 12 -27.5 29.5t-13.5 51.5zM133 41v1364q0 25 8.5 34t30.5 7h123q23 0 32 -6t9 -31v-1368q0 -29 -9.5 -35t-31.5 -6h-123 q-18 0 -28.5 6t-10.5 35z" />
<glyph unicode="&#xcd;" horiz-adv-x="468" d="M133 41v1364q0 25 8.5 34t30.5 7h123q23 0 32 -6t9 -31v-1368q0 -29 -9.5 -35t-31.5 -6h-123q-18 0 -28.5 6t-10.5 35zM197 1612q0 29 24 53l193 199q10 10 22.5 19t30.5 9q23 0 43 -21.5t20 -58.5q0 -35 -13 -52t-28 -29l-217 -154q-8 -6 -17 -11t-19 -5q-16 0 -27.5 14 t-11.5 37z" />
<glyph unicode="&#xce;" horiz-adv-x="468" d="M-66 1591q0 16 9.5 27.5t25.5 28.5q43 39 68.5 61.5t44 39.5t34 34.5t38.5 42.5q27 27 40 39t29 12q14 0 24.5 -8t31.5 -31q16 -18 61 -63t123 -107q31 -23 44 -37t13 -35q0 -18 -9 -27t-19 -9q-8 0 -16.5 5t-18.5 9l-170 113q-18 10 -32.5 19t-29.5 9q-12 0 -26.5 -8 t-34.5 -25l-168 -108q-6 -6 -15.5 -12.5t-19.5 -6.5t-18.5 11.5t-8.5 25.5zM133 41v1364q0 25 8.5 34t30.5 7h123q23 0 32 -6t9 -31v-1368q0 -29 -9.5 -35t-31.5 -6h-123q-18 0 -28.5 6t-10.5 35z" />
<glyph unicode="&#xcf;" horiz-adv-x="468" d="M-72 1718q0 55 38 86t83 31q41 0 78 -29t37 -84q0 -41 -27.5 -79.5t-89.5 -38.5q-45 0 -82 28.5t-37 85.5zM133 41v1364q0 25 8.5 34t30.5 7h123q23 0 32 -6t9 -31v-1368q0 -29 -9.5 -35t-31.5 -6h-123q-18 0 -28.5 6t-10.5 35zM303 1718q0 55 38 86t83 31q41 0 78 -29 t37 -84q0 -41 -29 -79.5t-88 -38.5q-45 0 -82 28.5t-37 85.5z" />
<glyph unicode="&#xd0;" horiz-adv-x="1366" d="M0 748v86q0 23 6 26.5t27 3.5h102v504q0 31 6 41t25 16q18 6 55 13.5t81 11.5t93 7t97 3q225 0 378.5 -68.5t246.5 -176t134 -238.5t41 -256q0 -111 -23.5 -199t-57 -154.5t-71.5 -111.5t-69 -72q-129 -115 -293 -156.5t-336 -41.5q-27 0 -64.5 1t-77.5 4t-76 6t-56 9 q-23 6 -28 18.5t-5 28.5v678h-102q-20 0 -24.5 2t-8.5 15zM338 121q39 -6 106 -6q164 0 283 44t196.5 125t114.5 193.5t37 249.5q0 117 -32.5 229.5t-110.5 200.5q-86 98 -204 138t-261 40q-45 0 -72.5 -3t-56.5 -7v-461h397q20 0 27 -6q4 -4 4 -34.5v-53.5q0 -20 -5 -26.5 t-28 -6.5h-395v-616z" />
<glyph unicode="&#xd1;" horiz-adv-x="1409" d="M137 39v1368q0 25 7.5 32t31.5 7h119q20 0 26.5 -4t22.5 -27l770 -1067v1059q0 20 4 27.5t17 11.5h106q20 0 25.5 -7t5.5 -30v-1372q0 -27 -7.5 -32t-27.5 -5h-78q-16 2 -23.5 7t-21.5 22l-817 1134v-1124q0 -16 -3 -25.5t-15 -11.5q-4 -2 -42 -2h-65q-23 0 -29 8t-6 31z M393 1622q0 16 10.5 48t33 62.5t61.5 54t94 23.5q47 0 78.5 -16t66.5 -41q41 -29 70 -43t65 -14q39 0 56.5 14t34.5 33q27 37 35 46t20 9q16 0 24.5 -11t8.5 -28q0 -20 -9.5 -53t-32 -63.5t-59.5 -53t-92 -22.5q-49 0 -82 16t-76 45q-47 33 -69.5 44t-52.5 11 q-37 0 -54.5 -12t-34.5 -29q-31 -43 -40 -53t-23 -10q-33 0 -33 43z" />
<glyph unicode="&#xd2;" horiz-adv-x="1449" d="M72 723q0 137 39 272t119.5 243t205.5 174.5t295 66.5q156 0 274.5 -61.5t199.5 -162t124 -228.5t49 -261q8 -168 -38 -313.5t-133 -253t-208.5 -169t-269.5 -61.5q-141 0 -261 55.5t-208 155t-138 237.5t-50 306zM285 735q0 -121 20 -215q20 -102 63.5 -179t99.5 -129 t122.5 -79t136.5 -27q88 0 180 47.5t158 149.5q37 57 57.5 119.5t30.5 124t11 116t1 97.5q-4 180 -52 297t-115.5 182.5t-142.5 91t-132 25.5q-98 0 -188 -51q-72 -41 -119 -102.5t-77 -135.5t-42 -159t-12 -173zM428 1812q0 37 20.5 58.5t43.5 21.5q18 0 30.5 -9t22.5 -19 l192 -199q25 -25 25 -53q0 -23 -11.5 -37t-27.5 -14q-10 0 -19.5 5t-17.5 11l-217 154q-14 12 -27.5 29.5t-13.5 51.5z" />
<glyph unicode="&#xd3;" horiz-adv-x="1449" d="M72 723q0 137 39 272t119.5 243t205.5 174.5t295 66.5q156 0 274.5 -61.5t199.5 -162t124 -228.5t49 -261q8 -168 -38 -313.5t-133 -253t-208.5 -169t-269.5 -61.5q-141 0 -261 55.5t-208 155t-138 237.5t-50 306zM285 735q0 -121 20 -215q20 -102 63.5 -179t99.5 -129 t122.5 -79t136.5 -27q88 0 180 47.5t158 149.5q37 57 57.5 119.5t30.5 124t11 116t1 97.5q-4 180 -52 297t-115.5 182.5t-142.5 91t-132 25.5q-98 0 -188 -51q-72 -41 -119 -102.5t-77 -135.5t-42 -159t-12 -173zM686 1612q0 29 25 53l192 199q10 10 22.5 19t30.5 9 q23 0 43.5 -21.5t20.5 -58.5q0 -35 -13.5 -52t-27.5 -29l-217 -154q-8 -6 -17.5 -11t-19.5 -5q-16 0 -27.5 14t-11.5 37z" />
<glyph unicode="&#xd4;" horiz-adv-x="1449" d="M72 723q0 137 39 272t119.5 243t205.5 174.5t295 66.5q156 0 274.5 -61.5t199.5 -162t124 -228.5t49 -261q8 -168 -38 -313.5t-133 -253t-208.5 -169t-269.5 -61.5q-141 0 -261 55.5t-208 155t-138 237.5t-50 306zM285 735q0 -121 20 -215q20 -102 63.5 -179t99.5 -129 t122.5 -79t136.5 -27q88 0 180 47.5t158 149.5q37 57 57.5 119.5t30.5 124t11 116t1 97.5q-4 180 -52 297t-115.5 182.5t-142.5 91t-132 25.5q-98 0 -188 -51q-72 -41 -119 -102.5t-77 -135.5t-42 -159t-12 -173zM424 1591q0 16 9 27.5t26 28.5q43 39 68.5 61.5t44 39.5 t34 34.5t37.5 42.5q27 27 40 39t30 12q14 0 24.5 -8t30.5 -31q16 -18 61 -63t123 -107q31 -23 44.5 -37t13.5 -35q0 -18 -9.5 -27t-19.5 -9q-8 0 -16.5 5t-18.5 9l-170 113q-18 10 -32.5 19t-28.5 9q-12 0 -26.5 -8t-35.5 -25l-168 -108q-6 -6 -15 -12.5t-19 -6.5 t-18.5 11.5t-8.5 25.5z" />
<glyph unicode="&#xd5;" horiz-adv-x="1449" d="M72 723q0 137 39 272t119.5 243t205.5 174.5t295 66.5q156 0 274.5 -61.5t199.5 -162t124 -228.5t49 -261q8 -168 -38 -313.5t-133 -253t-208.5 -169t-269.5 -61.5q-141 0 -261 55.5t-208 155t-138 237.5t-50 306zM285 735q0 -121 20 -215q20 -102 63.5 -179t99.5 -129 t122.5 -79t136.5 -27q88 0 180 47.5t158 149.5q37 57 57.5 119.5t30.5 124t11 116t1 97.5q-4 180 -52 297t-115.5 182.5t-142.5 91t-132 25.5q-98 0 -188 -51q-72 -41 -119 -102.5t-77 -135.5t-42 -159t-12 -173zM393 1622q0 16 10.5 48t33 62.5t61.5 54t94 23.5 q47 0 78.5 -16t66.5 -41q41 -29 70 -43t65 -14q39 0 56.5 14t34.5 33q27 37 35 46t20 9q16 0 24.5 -11t8.5 -28q0 -20 -9.5 -53t-32 -63.5t-59.5 -53t-92 -22.5q-49 0 -82 16t-76 45q-47 33 -69.5 44t-52.5 11q-37 0 -54.5 -12t-34.5 -29q-31 -43 -40 -53t-23 -10 q-33 0 -33 43z" />
<glyph unicode="&#xd6;" horiz-adv-x="1449" d="M72 723q0 137 39 272t119.5 243t205.5 174.5t295 66.5q156 0 274.5 -61.5t199.5 -162t124 -228.5t49 -261q8 -168 -38 -313.5t-133 -253t-208.5 -169t-269.5 -61.5q-141 0 -261 55.5t-208 155t-138 237.5t-50 306zM285 735q0 -121 20 -215q20 -102 63.5 -179t99.5 -129 t122.5 -79t136.5 -27q88 0 180 47.5t158 149.5q37 57 57.5 119.5t30.5 124t11 116t1 97.5q-4 180 -52 297t-115.5 182.5t-142.5 91t-132 25.5q-98 0 -188 -51q-72 -41 -119 -102.5t-77 -135.5t-42 -159t-12 -173zM426 1718q0 55 38 86t83 31q41 0 78 -29t37 -84 q0 -41 -28 -79.5t-89 -38.5q-45 0 -82 28.5t-37 85.5zM801 1718q0 55 38 86t83 31q41 0 77.5 -29t36.5 -84q0 -41 -28.5 -79.5t-87.5 -38.5q-45 0 -82 28.5t-37 85.5z" />
<glyph unicode="&#xd7;" horiz-adv-x="1024" d="M123 293l303 303l-303 303l86 86l303 -303l303 303l86 -86l-303 -303l303 -303l-86 -86l-303 303l-303 -303z" />
<glyph unicode="&#xd8;" horiz-adv-x="1449" d="M72 713q0 150 45 288t129 244.5t205.5 169t275.5 62.5q78 0 138.5 -13.5t105.5 -32t76.5 -39t54.5 -36.5l147 213q10 10 14.5 16t10.5 4q2 0 12 -5t21.5 -12t20.5 -15.5t9 -14.5q-2 -6 -5 -11t-7 -9l-158 -226q111 -121 161 -257t50 -302t-50 -307t-139 -243.5t-209 -160 t-259 -57.5q-76 0 -135.5 14.5t-105.5 35t-77.5 42t-50.5 35.5l-149 -221q-10 -10 -13.5 -12t-7.5 -2t-14 5t-20.5 13t-18.5 16.5t-8 12.5q0 6 10 20l156 226q-113 111 -164 256t-51 303zM272 715q0 -82 12.5 -147.5t30 -117t37 -88t35.5 -63.5l629 930q-16 16 -41 37.5 t-59.5 42t-78.5 34t-102 13.5q-98 0 -183 -45t-146.5 -129t-97.5 -202t-36 -265zM444 227q43 -43 107.5 -82t165.5 -39q98 0 182 44.5t146.5 127t97.5 201.5t35 269q0 84 -12.5 149.5t-29 115.5t-35 85t-30.5 55z" />
<glyph unicode="&#xd9;" horiz-adv-x="1193" d="M117 459v952q0 25 7 31t30 6h129q25 0 32 -5t7 -32v-917q0 -37 5 -99.5t32.5 -124t89 -105.5t172.5 -44q76 0 144.5 28.5t108.5 92.5q35 53 40.5 102t5.5 109v956q0 23 6 31t26 8h29.5h33t28 -1t14.5 -1q23 -2 22 -37v-979q-2 -63 -9 -127.5t-50 -134.5 q-63 -106 -170 -152.5t-248 -46.5q-113 0 -189.5 24.5t-125.5 59.5t-76 70t-39 57q-39 70 -47 144.5t-8 134.5zM301 1812q0 37 20.5 58.5t43.5 21.5q18 0 30.5 -9t22.5 -19l192 -199q25 -25 25 -53q0 -23 -11.5 -37t-27.5 -14q-10 0 -19.5 5t-17.5 11l-217 154 q-14 12 -27.5 29.5t-13.5 51.5z" />
<glyph unicode="&#xda;" horiz-adv-x="1193" d="M117 459v952q0 25 7 31t30 6h129q25 0 32 -5t7 -32v-917q0 -37 5 -99.5t32.5 -124t89 -105.5t172.5 -44q76 0 144.5 28.5t108.5 92.5q35 53 40.5 102t5.5 109v956q0 23 6 31t26 8h29.5h33t28 -1t14.5 -1q23 -2 22 -37v-979q-2 -63 -9 -127.5t-50 -134.5 q-63 -106 -170 -152.5t-248 -46.5q-113 0 -189.5 24.5t-125.5 59.5t-76 70t-39 57q-39 70 -47 144.5t-8 134.5zM559 1612q0 29 25 53l192 199q10 10 22.5 19t30.5 9q23 0 43.5 -21.5t20.5 -58.5q0 -35 -13.5 -52t-27.5 -29l-217 -154q-8 -6 -17.5 -11t-19.5 -5 q-16 0 -27.5 14t-11.5 37z" />
<glyph unicode="&#xdb;" horiz-adv-x="1193" d="M117 459v952q0 25 7 31t30 6h129q25 0 32 -5t7 -32v-917q0 -37 5 -99.5t32.5 -124t89 -105.5t172.5 -44q76 0 144.5 28.5t108.5 92.5q35 53 40.5 102t5.5 109v956q0 23 6 31t26 8h29.5h33t28 -1t14.5 -1q23 -2 22 -37v-979q-2 -63 -9 -127.5t-50 -134.5 q-63 -106 -170 -152.5t-248 -46.5q-113 0 -189.5 24.5t-125.5 59.5t-76 70t-39 57q-39 70 -47 144.5t-8 134.5zM297 1591q0 16 9 27.5t26 28.5q43 39 68.5 61.5t44 39.5t34 34.5t37.5 42.5q27 27 40 39t30 12q14 0 24.5 -8t30.5 -31q16 -18 61.5 -63t122.5 -107 q31 -23 44.5 -37t13.5 -35q0 -18 -9.5 -27t-19.5 -9q-8 0 -16.5 5t-18.5 9l-170 113q-18 10 -32.5 19t-28.5 9q-12 0 -26.5 -8t-35.5 -25l-168 -108q-6 -6 -15 -12.5t-19 -6.5t-18.5 11.5t-8.5 25.5z" />
<glyph unicode="&#xdc;" horiz-adv-x="1193" d="M117 459v952q0 25 7 31t30 6h129q25 0 32 -5t7 -32v-917q0 -37 5 -99.5t32.5 -124t89 -105.5t172.5 -44q76 0 144.5 28.5t108.5 92.5q35 53 40.5 102t5.5 109v956q0 23 6 31t26 8h29.5h33t28 -1t14.5 -1q23 -2 22 -37v-979q-2 -63 -9 -127.5t-50 -134.5 q-63 -106 -170 -152.5t-248 -46.5q-113 0 -189.5 24.5t-125.5 59.5t-76 70t-39 57q-39 70 -47 144.5t-8 134.5zM293 1718q0 55 38 86t83 31q41 0 77.5 -29t36.5 -84q0 -41 -27.5 -79.5t-88.5 -38.5q-45 0 -82 28.5t-37 85.5zM668 1718q0 55 37.5 86t82.5 31q41 0 78 -29 t37 -84q0 -41 -28.5 -79.5t-88.5 -38.5q-45 0 -81.5 28.5t-36.5 85.5z" />
<glyph unicode="&#xdd;" horiz-adv-x="1110" d="M0 1425q0 12 9 16.5t22 4.5h147q23 0 31 -4t18 -25l353 -602l350 598q14 23 19 27t20 6h114q16 0 20.5 -8t4.5 -13q0 -8 -2 -14t-10 -20l-443 -740v-618q0 -25 -9 -29t-32 -4h-133q-20 0 -26.5 7t-6.5 26v629l-432 729q-10 18 -12 23t-2 11zM516 1612q0 29 25 53l192 199 q10 10 22.5 19t30.5 9q23 0 43.5 -21.5t20.5 -58.5q0 -35 -13.5 -52t-27.5 -29l-217 -154q-8 -6 -17.5 -11t-19.5 -5q-16 0 -27.5 14t-11.5 37z" />
<glyph unicode="&#xde;" d="M135 35v1374q0 23 8.5 30t30.5 7h125q20 0 28.5 -5t8.5 -32v-272q57 16 115.5 26.5t117.5 10.5q117 0 205 -33t145.5 -90.5t86 -132t28.5 -160.5q0 -20 -3 -52t-14 -71t-35 -81t-64 -81q-80 -78 -198 -113.5t-269 -35.5q-35 0 -60.5 1t-54.5 5v-295q0 -25 -8.5 -30 t-28.5 -5h-125q-20 0 -29.5 5t-9.5 30zM336 449q23 -4 44 -6.5t54 -2.5q70 0 139.5 12.5t125 47.5t90 97t34.5 165q0 127 -55 199q-29 39 -63.5 59t-69.5 29.5t-65.5 11.5t-49.5 2q-72 0 -113.5 -7t-70.5 -16v-591z" />
<glyph unicode="&#xdf;" horiz-adv-x="1024" d="M123 35v1003q0 43 4 102.5t19.5 125t48 130t90.5 113.5q41 35 100 58.5t137 23.5q68 0 125.5 -20.5t98 -56t64.5 -86t24 -111.5q0 -86 -38 -152.5t-83 -126.5q-35 -47 -54.5 -75.5t-30 -48t-13.5 -33t-3 -31.5q0 -53 38 -92t118 -105q45 -35 86 -71.5t72.5 -80.5 t51 -97.5t19.5 -116.5q0 -145 -94 -228.5t-248 -83.5q-61 0 -106 13.5t-74 33t-43 44t-14 49.5q0 35 22.5 55t51.5 20q23 0 39 -12t28 -24q23 -20 54.5 -42t80.5 -22q53 0 100.5 40t47.5 120q0 78 -44 129t-98 96l-114 100q-53 45 -92 91.5t-39 121.5q0 63 28.5 113.5 t67.5 104.5q31 43 54.5 77.5t41 66.5t25.5 62.5t8 65.5q0 39 -12.5 76t-37 64.5t-59 44t-77.5 16.5q-68 0 -106 -34t-56.5 -82t-22.5 -101.5t-4 -90.5v-1132q2 -29 -6 -34t-31 -5h-102q-27 2 -35 6t-8 29z" />
<glyph unicode="&#xe0;" horiz-adv-x="894" d="M55 254q0 88 41 148.5t115 103.5t176 76.5t225 70.5v105q0 31 -2 68.5t-16 71.5t-46 56.5t-89 22.5q-45 0 -75 -15.5t-49.5 -36t-30.5 -44t-17 -37.5q-10 -29 -27.5 -58.5t-64.5 -29.5q-23 0 -52.5 18.5t-29.5 67.5q0 45 27.5 89t76.5 78.5t117.5 55t150.5 20.5 q113 0 174.5 -35.5t90 -87t35 -107.5t6.5 -97v-543q-2 -70 -16.5 -112t-72.5 -72q-29 -16 -65.5 -26.5t-74.5 -16.5t-77 -9.5t-71 -3.5q-20 0 -79 4.5t-121 31t-110.5 83t-48.5 160.5zM198 1403q0 29 16.5 51.5t41.5 22.5q16 0 29.5 -10.5t23.5 -20.5l178 -182 q14 -14 17.5 -25.5t3.5 -19.5q0 -25 -12.5 -36.5t-24.5 -11.5q-10 0 -18.5 5.5t-16.5 9.5l-199 141q-12 10 -25.5 26.5t-13.5 49.5zM242 281q0 -6 3 -37t22.5 -67t62.5 -63.5t121 -27.5q59 0 91.5 15.5t48 39t18.5 49t3 46.5v321q-84 -27 -152.5 -51.5t-116.5 -55 t-74.5 -70.5t-26.5 -99z" />
<glyph unicode="&#xe1;" horiz-adv-x="894" d="M55 254q0 88 41 148.5t115 103.5t176 76.5t225 70.5v105q0 31 -2 68.5t-16 71.5t-46 56.5t-89 22.5q-45 0 -75 -15.5t-49.5 -36t-30.5 -44t-17 -37.5q-10 -29 -27.5 -58.5t-64.5 -29.5q-23 0 -52.5 18.5t-29.5 67.5q0 45 27.5 89t76.5 78.5t117.5 55t150.5 20.5 q113 0 174.5 -35.5t90 -87t35 -107.5t6.5 -97v-543q-2 -70 -16.5 -112t-72.5 -72q-29 -16 -65.5 -26.5t-74.5 -16.5t-77 -9.5t-71 -3.5q-20 0 -79 4.5t-121 31t-110.5 83t-48.5 160.5zM242 281q0 -6 3 -37t22.5 -67t62.5 -63.5t121 -27.5q59 0 91.5 15.5t48 39t18.5 49 t3 46.5v321q-84 -27 -152.5 -51.5t-116.5 -55t-74.5 -70.5t-26.5 -99zM428 1219q0 8 3 19t18 26l180 182q10 10 23.5 20.5t29.5 10.5q25 0 40.5 -22.5t15.5 -51.5q0 -33 -12.5 -49.5t-24.5 -26.5l-199 -141q-8 -4 -16 -9.5t-19 -5.5q-12 0 -25.5 11.5t-13.5 36.5z" />
<glyph unicode="&#xe2;" horiz-adv-x="894" d="M55 254q0 88 41 148.5t115 103.5t176 76.5t225 70.5v105q0 31 -2 68.5t-16 71.5t-46 56.5t-89 22.5q-45 0 -75 -15.5t-49.5 -36t-30.5 -44t-17 -37.5q-10 -29 -27.5 -58.5t-64.5 -29.5q-23 0 -52.5 18.5t-29.5 67.5q0 45 27.5 89t76.5 78.5t117.5 55t150.5 20.5 q113 0 174.5 -35.5t90 -87t35 -107.5t6.5 -97v-543q-2 -70 -16.5 -112t-72.5 -72q-29 -16 -65.5 -26.5t-74.5 -16.5t-77 -9.5t-71 -3.5q-20 0 -79 4.5t-121 31t-110.5 83t-48.5 160.5zM187 1192q0 16 8 26.5t26 26.5q57 49 101.5 90t81.5 88q16 23 24 32t25 9q16 0 26.5 -9 t16.5 -17q35 -35 72.5 -74t111.5 -98q39 -33 47 -42.5t8 -25.5q0 -14 -9 -24.5t-19 -10.5q-8 0 -16.5 5.5t-16.5 9.5l-166 106q-14 8 -26.5 14.5t-26.5 6.5q-16 0 -30.5 -8.5t-24.5 -16.5l-150 -102q-23 -18 -35 -19q-10 0 -19 8.5t-9 24.5zM242 281q0 -6 3 -37t22.5 -67 t62.5 -63.5t121 -27.5q59 0 91.5 15.5t48 39t18.5 49t3 46.5v321q-84 -27 -152.5 -51.5t-116.5 -55t-74.5 -70.5t-26.5 -99z" />
<glyph unicode="&#xe3;" horiz-adv-x="894" d="M55 254q0 88 41 148.5t115 103.5t176 76.5t225 70.5v105q0 31 -2 68.5t-16 71.5t-46 56.5t-89 22.5q-45 0 -75 -15.5t-49.5 -36t-30.5 -44t-17 -37.5q-10 -29 -27.5 -58.5t-64.5 -29.5q-23 0 -52.5 18.5t-29.5 67.5q0 45 27.5 89t76.5 78.5t117.5 55t150.5 20.5 q113 0 174.5 -35.5t90 -87t35 -107.5t6.5 -97v-543q-2 -70 -16.5 -112t-72.5 -72q-29 -16 -65.5 -26.5t-74.5 -16.5t-77 -9.5t-71 -3.5q-20 0 -79 4.5t-121 31t-110.5 83t-48.5 160.5zM162 1260q0 18 11 48.5t33.5 60.5t57.5 51.5t84 21.5q39 0 67.5 -14.5t61.5 -36.5 q49 -35 74.5 -48.5t60.5 -13.5q41 0 62.5 20.5t38.5 45.5q12 18 18 25t21 7q10 0 19 -9t9 -32q0 -20 -10 -50.5t-31.5 -60.5t-55.5 -50.5t-81 -20.5q-43 0 -71 13.5t-44 25.5q-53 41 -81.5 57.5t-63.5 16.5q-49 0 -70.5 -21.5t-33.5 -40.5q-10 -18 -18.5 -27t-24.5 -9 q-10 0 -21.5 9t-11.5 32zM242 281q0 -6 3 -37t22.5 -67t62.5 -63.5t121 -27.5q59 0 91.5 15.5t48 39t18.5 49t3 46.5v321q-84 -27 -152.5 -51.5t-116.5 -55t-74.5 -70.5t-26.5 -99z" />
<glyph unicode="&#xe4;" horiz-adv-x="894" d="M55 254q0 88 41 148.5t115 103.5t176 76.5t225 70.5v105q0 31 -2 68.5t-16 71.5t-46 56.5t-89 22.5q-45 0 -75 -15.5t-49.5 -36t-30.5 -44t-17 -37.5q-10 -29 -27.5 -58.5t-64.5 -29.5q-23 0 -52.5 18.5t-29.5 67.5q0 45 27.5 89t76.5 78.5t117.5 55t150.5 20.5 q113 0 174.5 -35.5t90 -87t35 -107.5t6.5 -97v-543q-2 -70 -16.5 -112t-72.5 -72q-29 -16 -65.5 -26.5t-74.5 -16.5t-77 -9.5t-71 -3.5q-20 0 -79 4.5t-121 31t-110.5 83t-48.5 160.5zM170 1358q0 53 35 82.5t80 29.5q47 0 78.5 -30.5t31.5 -79.5t-30.5 -82t-79.5 -33 q-47 0 -81 32t-34 81zM242 281q0 -6 3 -37t22.5 -67t62.5 -63.5t121 -27.5q59 0 91.5 15.5t48 39t18.5 49t3 46.5v321q-84 -27 -152.5 -51.5t-116.5 -55t-74.5 -70.5t-26.5 -99zM533 1358q0 53 33.5 82.5t78.5 29.5q47 0 80 -30.5t33 -79.5t-32 -82t-81 -33q-47 0 -79.5 32 t-32.5 81z" />
<glyph unicode="&#xe5;" horiz-adv-x="894" d="M55 254q0 88 41 148.5t115 103.5t176 76.5t225 70.5v105q0 31 -2 68.5t-16 71.5t-46 56.5t-89 22.5q-45 0 -75 -15.5t-49.5 -36t-30.5 -44t-17 -37.5q-10 -29 -27.5 -58.5t-64.5 -29.5q-23 0 -52.5 18.5t-29.5 67.5q0 45 27.5 89t76.5 78.5t117.5 55t150.5 20.5 q113 0 174.5 -35.5t90 -87t35 -107.5t6.5 -97v-543q-2 -70 -16.5 -112t-72.5 -72q-29 -16 -65.5 -26.5t-74.5 -16.5t-77 -9.5t-71 -3.5q-20 0 -79 4.5t-121 31t-110.5 83t-48.5 160.5zM242 281q0 -6 3 -37t22.5 -67t62.5 -63.5t121 -27.5q59 0 91.5 15.5t48 39t18.5 49 t3 46.5v321q-84 -27 -152.5 -51.5t-116.5 -55t-74.5 -70.5t-26.5 -99zM315 1323q0 68 44 111t110 43q59 0 107.5 -40t48.5 -114q-2 -70 -47.5 -113t-108.5 -43q-61 0 -107.5 42t-46.5 114zM389 1325q0 -37 24.5 -59.5t57.5 -22.5q29 0 55.5 21.5t24.5 62.5q-2 33 -22.5 54.5 t-57.5 21.5q-41 0 -61.5 -24.5t-20.5 -53.5z" />
<glyph unicode="&#xe6;" horiz-adv-x="1492" d="M53 266q0 90 48.5 150.5t130 100.5t188 64.5t221.5 41.5q-8 88 -13 133t-16 84q-12 43 -30.5 69.5t-40 42t-44 20.5t-42.5 5q-45 0 -75 -13.5t-49.5 -34t-29.5 -44t-18 -43.5q-16 -41 -35 -71t-62 -30q-29 0 -55.5 20.5t-26.5 67.5q0 29 19.5 72t63.5 84t117 70.5 t179 29.5q76 0 126 -21.5t82 -50t47.5 -61t25.5 -53.5q12 18 33.5 50t58.5 62.5t89 52t124 21.5q82 0 141.5 -27.5t100.5 -69.5t64.5 -91t35.5 -91t17 -70l4 -29q0 -47 -26 -59.5t-54 -16.5l-549 -84q2 -37 6 -76t16 -86q18 -68 49 -114t66 -75.5t73 -42t70 -12.5 q51 0 100.5 22.5t82.5 55.5q23 23 41 53.5t34 65.5q12 25 21.5 38t28.5 13q12 0 27.5 -10t15.5 -43q0 -41 -21.5 -102.5t-65.5 -119t-115 -98.5t-169 -41q-29 0 -61.5 5.5t-65.5 19.5q-72 29 -119 77t-82 120q-10 -23 -29.5 -60t-57.5 -72.5t-100.5 -62.5t-154.5 -27 q-86 0 -149.5 27t-105.5 69t-63.5 93t-21.5 102zM240 285q0 -37 13 -71t37.5 -61.5t60.5 -44t81 -16.5q57 0 103.5 27.5t74.5 70.5q29 47 37 107.5t8 112.5q0 37 -2 63t-4 51q-80 -12 -153.5 -26.5t-130 -41t-91 -67.5t-34.5 -104zM803 645l438 68q-6 72 -25.5 120t-47 77.5 t-60.5 43t-66 13.5q-47 0 -90 -20.5t-75.5 -61.5t-53 -101.5t-20.5 -138.5z" />
<glyph unicode="&#xe7;" horiz-adv-x="937" d="M66 520q0 123 29.5 226.5t88 179t143.5 117.5t195 42q88 0 153.5 -29.5t109.5 -70.5t65.5 -85t21.5 -75q0 -25 -9 -41t-22.5 -26t-27.5 -14.5t-27 -4.5q-37 0 -55 20.5t-29 41.5q-16 31 -33.5 61.5t-40 54t-54 38t-76.5 14.5q-53 0 -101.5 -25.5t-85.5 -75t-58.5 -120 t-21.5 -162.5q0 -113 27 -197t70 -139t97 -83t112 -28q53 0 94 18.5t70.5 44t49 53.5t31.5 48q20 33 30.5 45t29.5 12q6 0 23.5 -7t17.5 -42q0 -25 -16.5 -78t-58.5 -108t-112.5 -99t-179.5 -51l-27 -116q47 2 82 -9.5t57.5 -32t34 -46t11.5 -52.5q0 -33 -15.5 -63.5 t-44 -55t-69.5 -39t-92 -14.5q-20 0 -51 4.5t-60 13.5t-49.5 22.5t-20.5 31.5q0 6 5.5 18.5t25.5 12.5q4 0 11.5 -2t29.5 -8q16 -4 36.5 -7.5t53.5 -3.5q47 0 83 21.5t36 68.5q0 25 -11.5 38.5t-27.5 21.5t-34.5 10t-30.5 4q-23 2 -34.5 8t-6.5 33l16 146q-80 14 -146.5 58 t-113.5 114.5t-72.5 164t-25.5 203.5z" />
<glyph unicode="&#xe8;" horiz-adv-x="980" d="M66 528q0 111 19 192t50 138q8 16 33 54t71 76t113.5 67.5t161.5 29.5q121 0 197.5 -45t119.5 -105.5t59.5 -121.5t16.5 -92q0 -43 -20.5 -52.5t-38.5 -13.5l-627 -92q6 -109 35 -187.5t72 -129.5t97 -77t114 -26q92 0 161.5 48.5t120.5 132.5q23 37 32 48t28 11 q10 0 25.5 -8t15.5 -41q0 -20 -19.5 -78.5t-65.5 -121t-126 -111t-199 -48.5q-47 0 -99.5 10.5t-103.5 38t-97 72.5t-81 117q-41 78 -53 161t-12 154zM221 664l490 75q-10 98 -70.5 164t-148.5 66q-125 0 -189.5 -85t-81.5 -220zM241 1403q0 29 16.5 51.5t41.5 22.5 q16 0 29.5 -10.5t23.5 -20.5l178 -182q14 -14 17.5 -25.5t3.5 -19.5q0 -25 -12.5 -36.5t-24.5 -11.5q-10 0 -18.5 5.5t-16.5 9.5l-199 141q-12 10 -25.5 26.5t-13.5 49.5z" />
<glyph unicode="&#xe9;" horiz-adv-x="980" d="M66 528q0 111 19 192t50 138q8 16 33 54t71 76t113.5 67.5t161.5 29.5q121 0 197.5 -45t119.5 -105.5t59.5 -121.5t16.5 -92q0 -43 -20.5 -52.5t-38.5 -13.5l-627 -92q6 -109 35 -187.5t72 -129.5t97 -77t114 -26q92 0 161.5 48.5t120.5 132.5q23 37 32 48t28 11 q10 0 25.5 -8t15.5 -41q0 -20 -19.5 -78.5t-65.5 -121t-126 -111t-199 -48.5q-47 0 -99.5 10.5t-103.5 38t-97 72.5t-81 117q-41 78 -53 161t-12 154zM221 664l490 75q-10 98 -70.5 164t-148.5 66q-125 0 -189.5 -85t-81.5 -220zM471 1219q0 8 3 19t18 26l180 182 q10 10 23.5 20.5t29.5 10.5q25 0 40.5 -22.5t15.5 -51.5q0 -33 -12.5 -49.5t-24.5 -26.5l-199 -141q-8 -4 -16 -9.5t-19 -5.5q-12 0 -25.5 11.5t-13.5 36.5z" />
<glyph unicode="&#xea;" horiz-adv-x="980" d="M66 528q0 111 19 192t50 138q8 16 33 54t71 76t113.5 67.5t161.5 29.5q121 0 197.5 -45t119.5 -105.5t59.5 -121.5t16.5 -92q0 -43 -20.5 -52.5t-38.5 -13.5l-627 -92q6 -109 35 -187.5t72 -129.5t97 -77t114 -26q92 0 161.5 48.5t120.5 132.5q23 37 32 48t28 11 q10 0 25.5 -8t15.5 -41q0 -20 -19.5 -78.5t-65.5 -121t-126 -111t-199 -48.5q-47 0 -99.5 10.5t-103.5 38t-97 72.5t-81 117q-41 78 -53 161t-12 154zM221 664l490 75q-10 98 -70.5 164t-148.5 66q-125 0 -189.5 -85t-81.5 -220zM230 1192q0 16 8 26.5t26 26.5 q57 49 101.5 90t81.5 88q16 23 24 32t25 9q16 0 26.5 -9t16.5 -17q35 -35 72.5 -74t111.5 -98q39 -33 47 -42.5t8 -25.5q0 -14 -9 -24.5t-19 -10.5q-8 0 -16.5 5.5t-16.5 9.5l-166 106q-14 8 -26.5 14.5t-26.5 6.5q-16 0 -30.5 -8.5t-24.5 -16.5l-150 -102q-23 -18 -35 -19 q-10 0 -19 8.5t-9 24.5z" />
<glyph unicode="&#xeb;" horiz-adv-x="980" d="M66 528q0 111 19 192t50 138q8 16 33 54t71 76t113.5 67.5t161.5 29.5q121 0 197.5 -45t119.5 -105.5t59.5 -121.5t16.5 -92q0 -43 -20.5 -52.5t-38.5 -13.5l-627 -92q6 -109 35 -187.5t72 -129.5t97 -77t114 -26q92 0 161.5 48.5t120.5 132.5q23 37 32 48t28 11 q10 0 25.5 -8t15.5 -41q0 -20 -19.5 -78.5t-65.5 -121t-126 -111t-199 -48.5q-47 0 -99.5 10.5t-103.5 38t-97 72.5t-81 117q-41 78 -53 161t-12 154zM215 1358q0 53 35 82.5t80 29.5q47 0 78.5 -30.5t31.5 -79.5t-30.5 -82t-79.5 -33q-47 0 -81 32t-34 81zM221 664l490 75 q-10 98 -70.5 164t-148.5 66q-125 0 -189.5 -85t-81.5 -220zM578 1358q0 53 33.5 82.5t78.5 29.5q47 0 80 -30.5t33 -79.5t-32 -82t-81 -33q-47 0 -79.5 32t-32.5 81z" />
<glyph unicode="&#xec;" horiz-adv-x="425" d="M-58 1403q0 29 16.5 51.5t41.5 22.5q16 0 29.5 -10.5t23.5 -20.5l178 -182q14 -14 17.5 -25.5t3.5 -19.5q0 -25 -12.5 -36.5t-24.5 -11.5q-10 0 -18.5 5.5t-16.5 9.5l-199 141q-12 10 -25.5 26.5t-13.5 49.5zM121 39v983q0 20 4 29.5t31 9.5h106q25 0 33 -7t8 -32v-983 q0 -29 -9 -34t-32 -5h-110q-23 0 -27 8t-4 31z" />
<glyph unicode="&#xed;" horiz-adv-x="425" d="M121 39v983q0 20 4 29.5t31 9.5h106q25 0 33 -7t8 -32v-983q0 -29 -9 -34t-32 -5h-110q-23 0 -27 8t-4 31zM170 1219q0 8 3 19t18 26l180 182q10 10 23.5 20.5t29.5 10.5q25 0 40.5 -22.5t15.5 -51.5q0 -33 -12.5 -49.5t-24.5 -26.5l-199 -141q-8 -4 -16 -9.5t-19 -5.5 q-12 0 -25.5 11.5t-13.5 36.5z" />
<glyph unicode="&#xee;" horiz-adv-x="425" d="M-69 1192q0 16 8 26.5t26 26.5q57 49 101.5 90t81.5 88q16 23 24 32t25 9q16 0 26.5 -9t16.5 -17q35 -35 72.5 -74t111.5 -98q39 -33 47 -42.5t8 -25.5q0 -14 -9 -24.5t-19 -10.5q-8 0 -16.5 5.5t-16.5 9.5l-166 106q-14 8 -26.5 14.5t-26.5 6.5q-16 0 -30.5 -8.5 t-24.5 -16.5l-150 -102q-23 -18 -35 -19q-10 0 -19 8.5t-9 24.5zM121 39v983q0 20 4 29.5t31 9.5h106q25 0 33 -7t8 -32v-983q0 -29 -9 -34t-32 -5h-110q-23 0 -27 8t-4 31z" />
<glyph unicode="&#xef;" horiz-adv-x="425" d="M-84 1358q0 53 35 82.5t80 29.5q47 0 78.5 -30.5t31.5 -79.5t-30.5 -82t-79.5 -33q-47 0 -81 32t-34 81zM121 39v983q0 20 4 29.5t31 9.5h106q25 0 33 -7t8 -32v-983q0 -29 -9 -34t-32 -5h-110q-23 0 -27 8t-4 31zM279 1358q0 53 33.5 82.5t78.5 29.5q47 0 80 -30.5 t33 -79.5t-32 -82t-81 -33q-47 0 -79.5 32t-32.5 81z" />
<glyph unicode="&#xf0;" d="M66 526q0 123 35.5 226.5t96 178.5t142.5 115.5t174 40.5q90 0 158.5 -39.5t113.5 -115.5q-29 123 -76.5 214t-95.5 150l-262 -88q-8 -2 -15 -4t-13 -2t-14.5 11.5t-15.5 25.5t-12.5 27.5t-5.5 15.5q0 12 29 23l244 77q-29 35 -64.5 71t-54.5 52q-8 6 -16 13.5t-8 17.5 q0 4 2 7t10 7t25.5 10.5t48.5 18.5q2 0 21 6t24 6q10 0 30.5 -14t45 -37.5t50 -51.5t48.5 -52l137 45q12 4 18 4q8 0 16.5 -12.5t15.5 -27.5t12 -29l5 -13q0 -10 -8 -13.5t-14 -5.5l-115 -36q39 -49 80 -120t73 -161t52.5 -201.5t20.5 -240.5q0 -147 -32 -268t-92.5 -205 t-146.5 -130.5t-196 -46.5q-117 0 -206 48.5t-147.5 127t-88 177t-29.5 198.5zM256 559q0 -102 22.5 -187t62.5 -145.5t93 -93.5t115 -33q63 0 112.5 33t82 91.5t49 137t14.5 168.5q-2 92 -22.5 172t-57.5 140.5t-89 95.5t-118 35q-117 0 -190.5 -111.5t-73.5 -302.5z" />
<glyph unicode="&#xf1;" d="M121 39v825q0 59 14.5 91t67.5 59q51 27 109.5 41t109.5 21t88 8t45 1q145 0 225 -35.5t117 -88t43 -110.5t6 -103v-707q0 -14 -4 -25.5t-20 -15.5h-113q-25 0 -35 6t-10 35v688q0 37 -4 80t-26.5 81t-71 63.5t-138.5 25.5q-82 0 -127 -21.5t-65.5 -50t-24.5 -60.5 t-4 -50v-756q0 -29 -10 -35t-33 -6h-100q-23 -2 -31 5t-8 34zM226 1260q0 18 11 48.5t33.5 60.5t57.5 51.5t84 21.5q39 0 67.5 -14.5t61.5 -36.5q49 -35 74.5 -48.5t60.5 -13.5q41 0 62.5 20.5t38.5 45.5q12 18 18 25t21 7q10 0 19 -9t9 -32q0 -20 -10 -50.5t-31.5 -60.5 t-55.5 -50.5t-81 -20.5q-43 0 -71 13.5t-44 25.5q-53 41 -81.5 57.5t-63.5 16.5q-49 0 -70.5 -21.5t-33.5 -40.5q-10 -18 -18.5 -27t-24.5 -9q-10 0 -21.5 9t-11.5 32z" />
<glyph unicode="&#xf2;" d="M66 528q0 106 31.5 208t91 178.5t147.5 123.5t199 47q121 0 207.5 -52t143 -133t85 -178t30.5 -185q2 -102 -27.5 -203t-89 -180.5t-147.5 -129t-200 -49.5q-117 0 -205 48.5t-147.5 126t-89 177t-29.5 201.5zM256 557q0 -109 24.5 -192.5t64.5 -143t92 -90.5t108 -31 q57 0 107 31t86 89.5t54.5 141.5t14.5 189t-29.5 185t-65.5 131.5t-89.5 78t-100.5 25.5q-61 0 -110.5 -31t-84 -85t-53 -130t-18.5 -168zM262 1403q0 29 16.5 51.5t41.5 22.5q16 0 29.5 -10.5t23.5 -20.5l178 -182q14 -14 17.5 -25.5t3.5 -19.5q0 -25 -12.5 -36.5 t-24.5 -11.5q-10 0 -18.5 5.5t-16.5 9.5l-199 141q-12 10 -25.5 26.5t-13.5 49.5z" />
<glyph unicode="&#xf3;" d="M66 528q0 106 31.5 208t91 178.5t147.5 123.5t199 47q121 0 207.5 -52t143 -133t85 -178t30.5 -185q2 -102 -27.5 -203t-89 -180.5t-147.5 -129t-200 -49.5q-117 0 -205 48.5t-147.5 126t-89 177t-29.5 201.5zM256 557q0 -109 24.5 -192.5t64.5 -143t92 -90.5t108 -31 q57 0 107 31t86 89.5t54.5 141.5t14.5 189t-29.5 185t-65.5 131.5t-89.5 78t-100.5 25.5q-61 0 -110.5 -31t-84 -85t-53 -130t-18.5 -168zM491 1219q0 8 3 19t18 26l180 182q10 10 23.5 20.5t29.5 10.5q25 0 40.5 -22.5t15.5 -51.5q0 -33 -12.5 -49.5t-24.5 -26.5l-199 -141 q-8 -4 -16 -9.5t-19 -5.5q-12 0 -25.5 11.5t-13.5 36.5z" />
<glyph unicode="&#xf4;" d="M66 528q0 106 31.5 208t91 178.5t147.5 123.5t199 47q121 0 207.5 -52t143 -133t85 -178t30.5 -185q2 -102 -27.5 -203t-89 -180.5t-147.5 -129t-200 -49.5q-117 0 -205 48.5t-147.5 126t-89 177t-29.5 201.5zM250 1192q0 16 8 26.5t26 26.5q57 49 101.5 90t81.5 88 q16 23 24 32t25 9q16 0 26.5 -9t16.5 -17q35 -35 72.5 -74t111.5 -98q39 -33 47 -42.5t8 -25.5q0 -14 -9 -24.5t-19 -10.5q-8 0 -16.5 5.5t-16.5 9.5l-166 106q-14 8 -26.5 14.5t-26.5 6.5q-16 0 -30.5 -8.5t-24.5 -16.5l-150 -102q-23 -18 -35 -19q-10 0 -19 8.5t-9 24.5z M256 557q0 -109 24.5 -192.5t64.5 -143t92 -90.5t108 -31q57 0 107 31t86 89.5t54.5 141.5t14.5 189t-29.5 185t-65.5 131.5t-89.5 78t-100.5 25.5q-61 0 -110.5 -31t-84 -85t-53 -130t-18.5 -168z" />
<glyph unicode="&#xf5;" d="M66 528q0 106 31.5 208t91 178.5t147.5 123.5t199 47q121 0 207.5 -52t143 -133t85 -178t30.5 -185q2 -102 -27.5 -203t-89 -180.5t-147.5 -129t-200 -49.5q-117 0 -205 48.5t-147.5 126t-89 177t-29.5 201.5zM226 1260q0 18 11 48.5t33.5 60.5t57.5 51.5t84 21.5 q39 0 67.5 -14.5t61.5 -36.5q49 -35 74.5 -48.5t60.5 -13.5q41 0 62.5 20.5t38.5 45.5q12 18 18 25t21 7q10 0 19 -9t9 -32q0 -20 -10 -50.5t-31.5 -60.5t-55.5 -50.5t-81 -20.5q-43 0 -71 13.5t-44 25.5q-53 41 -81.5 57.5t-63.5 16.5q-49 0 -70.5 -21.5t-33.5 -40.5 q-10 -18 -18.5 -27t-24.5 -9q-10 0 -21.5 9t-11.5 32zM256 557q0 -109 24.5 -192.5t64.5 -143t92 -90.5t108 -31q57 0 107 31t86 89.5t54.5 141.5t14.5 189t-29.5 185t-65.5 131.5t-89.5 78t-100.5 25.5q-61 0 -110.5 -31t-84 -85t-53 -130t-18.5 -168z" />
<glyph unicode="&#xf6;" d="M66 528q0 106 31.5 208t91 178.5t147.5 123.5t199 47q121 0 207.5 -52t143 -133t85 -178t30.5 -185q2 -102 -27.5 -203t-89 -180.5t-147.5 -129t-200 -49.5q-117 0 -205 48.5t-147.5 126t-89 177t-29.5 201.5zM237 1358q0 53 35 82.5t80 29.5q47 0 78.5 -30.5t31.5 -79.5 t-30.5 -82t-79.5 -33q-47 0 -81 32t-34 81zM256 557q0 -109 24.5 -192.5t64.5 -143t92 -90.5t108 -31q57 0 107 31t86 89.5t54.5 141.5t14.5 189t-29.5 185t-65.5 131.5t-89.5 78t-100.5 25.5q-61 0 -110.5 -31t-84 -85t-53 -130t-18.5 -168zM600 1358q0 53 33.5 82.5 t78.5 29.5q47 0 80 -30.5t33 -79.5t-32 -82t-81 -33q-47 0 -79.5 32t-32.5 81z" />
<glyph unicode="&#xf7;" horiz-adv-x="1024" d="M0 535v120h1024v-120h-1024zM422 328q0 37 25.5 65.5t66.5 28.5q31 0 63.5 -22.5t32.5 -71.5q0 -47 -30.5 -69.5t-59.5 -22.5q-41 0 -69.5 24.5t-28.5 67.5zM422 860q0 47 31.5 70.5t60.5 23.5q31 0 63.5 -21.5t32.5 -72.5q0 -41 -26.5 -66.5t-67.5 -25.5 q-37 0 -65.5 24.5t-28.5 67.5z" />
<glyph unicode="&#xf8;" d="M66 -55q0 6 4 11t10 15l119 164q-14 18 -37 50t-44.5 80t-36.5 113.5t-15 149.5q0 109 31.5 209.5t93 178t149.5 123.5t199 46q57 0 100 -10t76 -25.5t54.5 -33t37.5 -29.5l119 162q10 16 22 16q6 0 23.5 -14t17.5 -25q0 -12 -12 -24l-117 -168q72 -86 105.5 -191.5 t33.5 -216.5q0 -104 -32.5 -203.5t-93 -176t-147.5 -124t-196 -47.5q-59 0 -106 12.5t-81 30t-57.5 36t-35.5 30.5l-117 -166q-10 -14 -18 -14q-2 0 -10.5 4t-16.5 10t-15 13.5t-7 13.5zM240 561q0 -104 22.5 -171.5t38.5 -108.5l424 593q-35 43 -80 76t-119 33 q-70 0 -123 -37t-90 -97.5t-55 -136t-18 -151.5zM340 209q27 -39 58.5 -61.5t59 -34t50 -14.5t33.5 -3q63 0 116.5 34t90 92.5t57 135t20.5 160.5q0 104 -21.5 173t-41.5 110z" />
<glyph unicode="&#xf9;" horiz-adv-x="1024" d="M109 299v725q0 20 7 28.5t29 8.5h107q23 0 32 -6t9 -33v-680q0 -37 5 -79t26.5 -79t67.5 -61.5t130 -24.5q80 0 122 20.5t62.5 52.5t23.5 71t3 75v701q0 16 4 26.5t21 14.5q2 0 14 1t29.5 1h36h32.5q25 0 34 -8.5t11 -30.5v-768q0 -39 -3 -69.5t-11 -55.5t-25.5 -44 t-46.5 -38q-12 -6 -38.5 -18.5t-68.5 -23.5t-99.5 -20.5t-128.5 -9.5q-125 0 -189.5 26t-101.5 54q-57 47 -75.5 106.5t-18.5 137.5zM239 1403q0 29 16.5 51.5t41.5 22.5q16 0 29.5 -10.5t23.5 -20.5l178 -182q14 -14 17.5 -25.5t3.5 -19.5q0 -25 -12.5 -36.5t-24.5 -11.5 q-10 0 -18.5 5.5t-16.5 9.5l-199 141q-12 10 -25.5 26.5t-13.5 49.5z" />
<glyph unicode="&#xfa;" horiz-adv-x="1024" d="M109 299v725q0 20 7 28.5t29 8.5h107q23 0 32 -6t9 -33v-680q0 -37 5 -79t26.5 -79t67.5 -61.5t130 -24.5q80 0 122 20.5t62.5 52.5t23.5 71t3 75v701q0 16 4 26.5t21 14.5q2 0 14 1t29.5 1h36h32.5q25 0 34 -8.5t11 -30.5v-768q0 -39 -3 -69.5t-11 -55.5t-25.5 -44 t-46.5 -38q-12 -6 -38.5 -18.5t-68.5 -23.5t-99.5 -20.5t-128.5 -9.5q-125 0 -189.5 26t-101.5 54q-57 47 -75.5 106.5t-18.5 137.5zM469 1219q0 8 3 19t18 26l180 182q10 10 23.5 20.5t29.5 10.5q25 0 40.5 -22.5t15.5 -51.5q0 -33 -12.5 -49.5t-24.5 -26.5l-199 -141 q-8 -4 -16 -9.5t-19 -5.5q-12 0 -25.5 11.5t-13.5 36.5z" />
<glyph unicode="&#xfb;" horiz-adv-x="1024" d="M109 299v725q0 20 7 28.5t29 8.5h107q23 0 32 -6t9 -33v-680q0 -37 5 -79t26.5 -79t67.5 -61.5t130 -24.5q80 0 122 20.5t62.5 52.5t23.5 71t3 75v701q0 16 4 26.5t21 14.5q2 0 14 1t29.5 1h36h32.5q25 0 34 -8.5t11 -30.5v-768q0 -39 -3 -69.5t-11 -55.5t-25.5 -44 t-46.5 -38q-12 -6 -38.5 -18.5t-68.5 -23.5t-99.5 -20.5t-128.5 -9.5q-125 0 -189.5 26t-101.5 54q-57 47 -75.5 106.5t-18.5 137.5zM228 1192q0 16 8 26.5t26 26.5q57 49 101.5 90t81.5 88q16 23 24 32t25 9q16 0 26.5 -9t16.5 -17q35 -35 72.5 -74t111.5 -98 q39 -33 47 -42.5t8 -25.5q0 -14 -9 -24.5t-19 -10.5q-8 0 -16.5 5.5t-16.5 9.5l-166 106q-14 8 -26.5 14.5t-26.5 6.5q-16 0 -30.5 -8.5t-24.5 -16.5l-150 -102q-23 -18 -35 -19q-10 0 -19 8.5t-9 24.5z" />
<glyph unicode="&#xfc;" horiz-adv-x="1024" d="M109 299v725q0 20 7 28.5t29 8.5h107q23 0 32 -6t9 -33v-680q0 -37 5 -79t26.5 -79t67.5 -61.5t130 -24.5q80 0 122 20.5t62.5 52.5t23.5 71t3 75v701q0 16 4 26.5t21 14.5q2 0 14 1t29.5 1h36h32.5q25 0 34 -8.5t11 -30.5v-768q0 -39 -3 -69.5t-11 -55.5t-25.5 -44 t-46.5 -38q-12 -6 -38.5 -18.5t-68.5 -23.5t-99.5 -20.5t-128.5 -9.5q-125 0 -189.5 26t-101.5 54q-57 47 -75.5 106.5t-18.5 137.5zM207 1358q0 53 35 82.5t80 29.5q47 0 78.5 -30.5t31.5 -79.5t-30.5 -82t-79.5 -33q-47 0 -81 32t-34 81zM570 1358q0 53 33.5 82.5 t78.5 29.5q47 0 80 -30.5t33 -79.5t-32 -82t-81 -33q-47 0 -79.5 32t-32.5 81z" />
<glyph unicode="&#xfd;" horiz-adv-x="937" d="M0 -393q0 35 23.5 61.5t64.5 26.5q6 0 21.5 -3t33 -6t34 -6.5t22.5 -3.5q33 0 61.5 14.5t55 51.5t53 99.5t57.5 158.5l-397 1001q-8 18 -10.5 24.5t-2.5 10.5q0 20 14.5 22.5t22.5 2.5h121q25 0 31 -6t16 -31l289 -788l266 788q8 23 14.5 29t18.5 8h100q29 0 29 -23 q0 -4 -1 -10t-9 -27l-418 -1146q-23 -57 -51.5 -119t-71.5 -112t-102.5 -81.5t-141.5 -31.5q-10 0 -33.5 1t-48 10t-43 28.5t-18.5 56.5zM446 1219q0 8 3 19t18 26l180 182q10 10 23.5 20.5t29.5 10.5q25 0 40.5 -22.5t15.5 -51.5q0 -33 -12.5 -49.5t-24.5 -26.5l-199 -141 q-8 -4 -16 -9.5t-19 -5.5q-12 0 -25.5 11.5t-13.5 36.5z" />
<glyph unicode="&#xfe;" d="M121 -442v1968q0 25 7 33t32 10h98q29 0 37 -7.5t8 -35.5v-496q59 29 125 45.5t131 16.5q117 0 201 -45.5t137 -118t78.5 -165.5t25.5 -188q0 -92 -26.5 -197.5t-85 -194.5t-148.5 -147.5t-217 -58.5q-90 0 -141 26t-80 46v-493q0 -16 -6 -26.5t-29 -10.5h-102 q-23 0 -34 7t-11 32zM303 168q47 -29 98.5 -48.5t106.5 -19.5q63 0 118.5 30t97.5 86t65.5 139t23.5 188q0 76 -14.5 152.5t-49 139t-93 101.5t-146.5 39q-43 0 -96.5 -13.5t-77.5 -41.5q-25 -27 -29 -61t-4 -75v-616z" />
<glyph unicode="&#xff;" horiz-adv-x="937" d="M0 -393q0 35 23.5 61.5t64.5 26.5q6 0 21.5 -3t33 -6t34 -6.5t22.5 -3.5q33 0 61.5 14.5t55 51.5t53 99.5t57.5 158.5l-397 1001q-8 18 -10.5 24.5t-2.5 10.5q0 20 14.5 22.5t22.5 2.5h121q25 0 31 -6t16 -31l289 -788l266 788q8 23 14.5 29t18.5 8h100q29 0 29 -23 q0 -4 -1 -10t-9 -27l-418 -1146q-23 -57 -51.5 -119t-71.5 -112t-102.5 -81.5t-141.5 -31.5q-10 0 -33.5 1t-48 10t-43 28.5t-18.5 56.5zM190 1358q0 53 35 82.5t80 29.5q47 0 78.5 -30.5t31.5 -79.5t-30.5 -82t-79.5 -33q-47 0 -81 32t-34 81zM553 1358q0 53 33.5 82.5 t78.5 29.5q47 0 80 -30.5t33 -79.5t-32 -82t-81 -33q-47 0 -79.5 32t-32.5 81z" />
<glyph unicode="&#x152;" horiz-adv-x="1921" d="M72 727q0 162 44 299t126 237.5t199.5 157t265.5 56.5q76 0 133 -14.5t100 -36t75 -48t54 -49.5v18.5v32t1 31.5t1 16q4 12 13.5 15.5t25.5 3.5h723q23 0 28 -7t5 -30v-52.5t-4 -33.5q-4 -6 -13.5 -7t-15.5 -1h-573v-490h499q23 0 30 -6t7 -28q0 -23 -1 -53.5t-5 -35.5 q-6 -6 -15.5 -7t-13.5 -1h-501v-559h573q4 0 14.5 -1t14.5 -7q2 -2 3 -13.5t1 -26.5v-31.5v-28.5q0 -18 -11.5 -22.5t-21.5 -4.5h-721q-18 0 -27.5 2t-13.5 18q0 2 -1 16.5t-1 32v33v19.5q-14 -16 -41 -42t-71 -50.5t-107.5 -42t-149.5 -17.5q-147 0 -264 58.5t-197.5 161 t-123.5 240.5t-43 298zM279 739q0 -162 38.5 -281.5t102 -199.5t145.5 -119t168 -39q90 0 151.5 34t98.5 73q33 33 50.5 64.5t25.5 61t9 57.5t1 54v525q0 119 -37 195.5t-91 119.5t-113.5 59.5t-102.5 16.5q-84 0 -165 -39t-143.5 -118t-100 -194.5t-37.5 -269.5z" />
<glyph unicode="&#x153;" horiz-adv-x="1622" d="M66 535q0 106 27.5 205.5t83.5 176t139 122.5t194 46q86 0 145.5 -25.5t100.5 -62t65.5 -78.5t40.5 -73q31 76 73 123t87 73.5t90 34.5t80 8q113 0 184.5 -48t112.5 -112.5t56.5 -128t15.5 -94.5q0 -41 -20.5 -53t-45.5 -16l-567 -86q2 -27 6 -62.5t13 -73.5t23.5 -78 t37.5 -73q43 -66 98 -92.5t111 -26.5q57 0 98 21.5t70.5 51.5t47 60.5t27.5 51.5q18 35 28.5 49t31.5 14q31 0 36 -22.5t5 -32.5q0 -43 -21.5 -103.5t-65.5 -118t-114 -97.5t-166 -40q-14 0 -54 4.5t-90.5 26t-102.5 69.5t-91 138q-14 -31 -36.5 -72t-60.5 -77.5 t-96.5 -62.5t-144.5 -26q-119 0 -205 48.5t-141 126t-80.5 179t-25.5 206.5zM248 553q0 -106 23.5 -190t63.5 -142.5t90 -89.5t105 -31q37 0 69 12.5t56 30.5q39 31 62.5 77t36 95.5t15.5 96.5t3 80q0 23 -1 44t-3 44q-4 47 -19.5 114.5t-46 131t-80 107.5t-120.5 44 q-70 0 -118 -40t-79 -101.5t-44 -137t-13 -145.5zM928 645l442 68q-10 90 -37.5 141t-59.5 76.5t-62.5 32t-45.5 6.5q-53 0 -100 -29t-76 -76q-31 -49 -44 -105.5t-17 -113.5z" />
<glyph unicode="&#x178;" horiz-adv-x="1110" d="M0 1425q0 12 9 16.5t22 4.5h147q23 0 31 -4t18 -25l353 -602l350 598q14 23 19 27t20 6h114q16 0 20.5 -8t4.5 -13q0 -8 -2 -14t-10 -20l-443 -740v-618q0 -25 -9 -29t-32 -4h-133q-20 0 -26.5 7t-6.5 26v629l-432 729q-10 18 -12 23t-2 11zM248 1718q0 55 38 86t83 31 q41 0 77.5 -29t36.5 -84q0 -41 -27.5 -79.5t-88.5 -38.5q-45 0 -82 28.5t-37 85.5zM623 1718q0 55 37.5 86t82.5 31q41 0 78 -29t37 -84q0 -41 -28.5 -79.5t-88.5 -38.5q-45 0 -81.5 28.5t-36.5 85.5z" />
<glyph unicode="&#x2c6;" horiz-adv-x="512" d="M-18 1192q0 16 8 26.5t26 26.5q57 49 101.5 90t81.5 88q16 23 24 32t25 9q16 0 26.5 -9t16.5 -17q35 -35 72.5 -74t111.5 -98q39 -33 47 -42.5t8 -25.5q0 -14 -9 -24.5t-19 -10.5q-8 0 -16.5 5.5t-16.5 9.5l-166 106q-14 8 -26.5 14.5t-26.5 6.5q-16 0 -30.5 -8.5 t-24.5 -16.5l-150 -102q-23 -18 -35 -19q-10 0 -19 8.5t-9 24.5z" />
<glyph unicode="&#x2dc;" horiz-adv-x="512" d="M-53 1260q0 18 11 48.5t33.5 60.5t57.5 51.5t84 21.5q39 0 67.5 -14.5t61.5 -36.5q49 -35 74.5 -48.5t60.5 -13.5q41 0 62.5 20.5t38.5 45.5q12 18 18 25t21 7q10 0 19 -9t9 -32q0 -20 -10 -50.5t-31.5 -60.5t-55.5 -50.5t-81 -20.5q-43 0 -71 13.5t-44 25.5 q-53 41 -81.5 57.5t-63.5 16.5q-49 0 -70.5 -21.5t-33.5 -40.5q-10 -18 -18.5 -27t-24.5 -9q-10 0 -21.5 9t-11.5 32z" />
<glyph unicode="&#x2000;" horiz-adv-x="946" />
<glyph unicode="&#x2001;" horiz-adv-x="1892" />
<glyph unicode="&#x2002;" horiz-adv-x="946" />
<glyph unicode="&#x2003;" horiz-adv-x="1892" />
<glyph unicode="&#x2004;" horiz-adv-x="630" />
<glyph unicode="&#x2005;" horiz-adv-x="473" />
<glyph unicode="&#x2006;" horiz-adv-x="315" />
<glyph unicode="&#x2007;" horiz-adv-x="315" />
<glyph unicode="&#x2008;" horiz-adv-x="236" />
<glyph unicode="&#x2009;" horiz-adv-x="378" />
<glyph unicode="&#x200a;" horiz-adv-x="105" />
<glyph unicode="&#x2010;" horiz-adv-x="641" d="M117 535v51.5t2 36.5q4 14 13 17t20 3h333q20 0 28.5 -5t8.5 -26v-92q-2 -23 -33 -22h-337q-20 0 -27.5 7t-7.5 30z" />
<glyph unicode="&#x2011;" horiz-adv-x="641" d="M117 535v51.5t2 36.5q4 14 13 17t20 3h333q20 0 28.5 -5t8.5 -26v-92q-2 -23 -33 -22h-337q-20 0 -27.5 7t-7.5 30z" />
<glyph unicode="&#x2012;" horiz-adv-x="641" d="M117 535v51.5t2 36.5q4 14 13 17t20 3h333q20 0 28.5 -5t8.5 -26v-92q-2 -23 -33 -22h-337q-20 0 -27.5 7t-7.5 30z" />
<glyph unicode="&#x2013;" horiz-adv-x="1110" d="M119 545v65q0 23 10 28t31 5h788q23 0 33 -5t10 -32v-59q-4 -16 -12 -19.5t-31 -3.5h-786q-20 0 -29.5 3t-13.5 18z" />
<glyph unicode="&#x2014;" horiz-adv-x="1409" d="M119 586q0 39 4 48t29 9h1103q18 0 26.5 -4t8.5 -25q0 -43 -4 -53t-31 -10h-1099q-23 2 -30 6t-7 29z" />
<glyph unicode="&#x2018;" horiz-adv-x="512" d="M137 1221q0 70 25.5 126t59.5 94t68 58.5t48 20.5q16 0 26.5 -10.5t10.5 -24.5t-6.5 -22.5t-16.5 -20.5q-23 -23 -49.5 -55.5t-26.5 -73.5q0 -27 12.5 -43.5t26.5 -30.5q18 -20 32.5 -39.5t14.5 -50.5q0 -39 -27.5 -65.5t-68.5 -26.5q-20 0 -42.5 8t-42 27.5t-32 51.5 t-12.5 77z" />
<glyph unicode="&#x2019;" horiz-adv-x="512" d="M137 1092q0 14 6.5 22.5t16.5 18.5q23 23 49.5 56.5t26.5 74.5q0 27 -12.5 43t-26.5 30q-18 18 -32.5 38t-14.5 50q0 41 27.5 68t68.5 27q20 0 42.5 -8.5t42 -28t32 -51t12.5 -76.5q0 -72 -25.5 -127t-60.5 -93t-69 -58.5t-48 -20.5q-35 0 -35 35z" />
<glyph unicode="&#x201a;" horiz-adv-x="512" d="M137 -186q0 12 6.5 21.5t16.5 19.5q23 23 49.5 55.5t26.5 73.5q0 27 -12.5 44t-26.5 31q-18 18 -32.5 38t-14.5 50q0 41 27.5 67t68.5 26q20 0 42.5 -8.5t42 -28t32 -51t12.5 -76.5q0 -70 -25.5 -125t-60.5 -93t-69 -58.5t-48 -20.5q-35 0 -35 35z" />
<glyph unicode="&#x201c;" horiz-adv-x="811" d="M137 1221q0 70 25.5 126t59.5 94t67 58.5t47 20.5q16 0 25.5 -10.5t9.5 -24.5t-6.5 -22.5t-16.5 -20.5q-23 -23 -48.5 -55.5t-25.5 -73.5q0 -27 12.5 -43.5t26.5 -30.5q16 -18 30.5 -38.5t14.5 -51.5q0 -37 -26.5 -64.5t-67.5 -27.5q-23 0 -45 9t-40.5 28.5t-30 50.5 t-11.5 76zM440 1221q0 70 26 126t59.5 94t66.5 58.5t47 20.5q16 0 26.5 -10.5t10.5 -24.5t-7.5 -22.5t-17.5 -20.5q-20 -23 -46.5 -55.5t-26.5 -73.5q0 -27 12 -43.5t26 -30.5q16 -18 31 -38.5t15 -51.5q0 -41 -27 -66.5t-68 -25.5q-20 0 -42.5 8t-41 27.5t-31 51.5 t-12.5 77z" />
<glyph unicode="&#x201d;" horiz-adv-x="811" d="M135 1092q0 14 6.5 22.5t16.5 18.5q23 23 48 55.5t25 73.5q0 29 -11 45t-25 30q-16 16 -32 37t-16 51q0 41 28 68t69 27q20 0 42.5 -8.5t41 -29t31 -52t12.5 -76.5q0 -70 -26 -125t-59.5 -93t-66.5 -58.5t-47 -20.5q-16 0 -26.5 10t-10.5 25zM438 1092q0 12 6.5 21.5 t18.5 19.5q23 23 48.5 56.5t25.5 72.5q0 29 -12.5 45t-26.5 30q-16 16 -30.5 37t-14.5 51q0 39 26.5 67t67.5 28q43 0 85 -38t42 -126q0 -72 -25.5 -127t-59.5 -93t-67 -58.5t-47 -20.5q-16 0 -26.5 9t-10.5 26z" />
<glyph unicode="&#x201e;" horiz-adv-x="811" d="M135 -186q0 12 6.5 21.5t16.5 19.5q23 23 49 55.5t26 73.5q0 27 -12 43t-26 32q-16 16 -32 37t-16 51q0 41 28 67t69 26q20 0 42.5 -8.5t41 -28t31 -51t12.5 -76.5q0 -70 -26 -125t-59.5 -93t-66.5 -58.5t-47 -20.5q-37 0 -37 35zM438 -186q0 12 6.5 20.5t18.5 20.5 q23 23 48.5 56.5t25.5 72.5q0 29 -12.5 45t-26.5 30q-16 16 -30.5 37t-14.5 51q0 39 26.5 67t67.5 28q43 0 85 -38t42 -126q0 -72 -25.5 -127t-59.5 -94t-67 -58.5t-47 -19.5q-16 0 -26.5 9t-10.5 26z" />
<glyph unicode="&#x2022;" horiz-adv-x="681" d="M96 723q0 43 16.5 87t49.5 79t78 56.5t104 21.5q55 0 99 -19.5t77 -53.5t49.5 -78t16.5 -93t-17.5 -94t-49.5 -78t-75 -52.5t-96 -19.5q-57 0 -103 19.5t-79 53.5t-51.5 78t-18.5 93z" />
<glyph unicode="&#x2026;" horiz-adv-x="2048" d="M213 115q0 33 12.5 56.5t30.5 38.5t40.5 22.5t43.5 7.5q53 0 91 -37t36 -94q-2 -53 -40 -87t-87 -34t-88 33.5t-39 93.5zM895 115q0 33 12.5 56.5t30.5 38.5t40.5 22.5t43.5 7.5q53 0 91 -37t36 -94q-2 -53 -40 -87t-87 -34t-88 33.5t-39 93.5zM1577 115q0 33 12.5 56.5 t30.5 38.5t40.5 22.5t43.5 7.5q53 0 91 -37t36 -94q-2 -53 -40 -87t-87 -34t-88 33.5t-39 93.5z" />
<glyph unicode="&#x202f;" horiz-adv-x="378" />
<glyph unicode="&#x2039;" horiz-adv-x="468" d="M59 600q0 12 6.5 19.5t28.5 27.5q25 23 74 73t115 148q35 49 46 61.5t23 12.5q10 0 22.5 -9t12.5 -26q0 -16 -10 -33l-109 -202q-10 -18 -18 -37t-8 -37t9 -38.5t19 -41.5l109 -205l8 -16t4 -18q0 -16 -10 -25.5t-23 -9.5q-14 0 -24 10t-21 25q-27 41 -49 74.5t-45.5 63 t-48.5 58.5t-55 57q-39 35 -47.5 45.5t-8.5 22.5z" />
<glyph unicode="&#x203a;" horiz-adv-x="468" d="M78 907q0 16 10 25.5t23 9.5q14 0 24 -10t21 -25q53 -80 95 -137t103 -115q39 -35 47.5 -45t8.5 -24q0 -12 -6.5 -19.5t-28.5 -27.5q-25 -23 -73 -73t-116 -149q-35 -49 -46 -61t-23 -12q-10 0 -22.5 9t-12.5 26q0 16 10 32l109 203q10 18 18 36.5t8 37.5q0 18 -9 38.5 t-19 41.5l-109 204q-4 8 -8 16.5t-4 18.5z" />
<glyph unicode="&#x205f;" horiz-adv-x="473" />
<glyph unicode="&#x2122;" horiz-adv-x="1406" d="M49 1362v86h537v-86h-217v-594h-97v594h-223zM643 768v680h137l178 -559l175 559h137v-680h-94v444l4 140l-35 -119l-148 -465h-86l-147 465l-35 117l6 -138v-444h-92z" />
<glyph unicode="&#xe000;" horiz-adv-x="1064" d="M0 0v1065h1065v-1065h-1065z" />
</font>
</defs>
</svg>
